<?xml version="1.0" standalone="no"?><!-- Generator: Gravit.io --><svg xmlns="http://www.w3.org/2000/svg" xmlns:xlink="http://www.w3.org/1999/xlink" style="isolation:isolate" viewBox="0 0 50 50" width="50" height="50"><path d=" M 10.884 14.765 L 39.116 14.765 C 39.328 14.765 39.5 14.937 39.5 15.149 L 39.5 16.94 C 39.5 17.152 39.328 17.324 39.116 17.324 L 10.884 17.324 C 10.672 17.324 10.5 17.152 10.5 16.94 L 10.5 15.149 C 10.5 14.937 10.672 14.765 10.884 14.765 Z " fill="rgb(235,235,235)"/><path d=" M 10.884 23.721 L 39.116 23.721 C 39.328 23.721 39.5 23.893 39.5 24.104 L 39.5 25.896 C 39.5 26.107 39.328 26.279 39.116 26.279 L 10.884 26.279 C 10.672 26.279 10.5 26.107 10.5 25.896 L 10.5 24.104 C 10.5 23.893 10.672 23.721 10.884 23.721 Z " fill="rgb(235,235,235)"/><path d=" M 10.884 32.676 L 39.116 32.676 C 39.328 32.676 39.5 32.848 39.5 33.06 L 39.5 34.851 C 39.5 35.063 39.328 35.235 39.116 35.235 L 10.884 35.235 C 10.672 35.235 10.5 35.063 10.5 34.851 L 10.5 33.06 C 10.5 32.848 10.672 32.676 10.884 32.676 Z " fill="rgb(235,235,235)"/></svg>