<?xml version="1.0" standalone="no"?><!-- Generator: Gravit.io --><svg xmlns="http://www.w3.org/2000/svg" xmlns:xlink="http://www.w3.org/1999/xlink" style="isolation:isolate" viewBox="0 0 100 100" width="100" height="100"><rect x="16" y="79" width="68" height="15" transform="matrix(1,0,0,1,0,0)" fill="rgb(40,40,40)"/><rect x="28" y="68" width="44" height="9" transform="matrix(1,0,0,1,0,0)" fill="rgb(40,40,40)"/><path d=" M 50 65 L 50 38 C 42.207 37.355 33.884 39.032 25 43 C 37.167 49.333 41.843 56.677 39 65 L 50 65 Z " fill="rgb(40,40,40)" vector-effect="non-scaling-stroke" stroke-width="1" stroke="rgb(40,40,40)" stroke-linejoin="miter" stroke-linecap="square" stroke-miterlimit="3"/><path d=" M 50 65 L 50 38 C 57.793 37.355 66.116 39.032 75 43 C 62.833 49.333 58.157 56.677 61 65 L 50 65 Z " fill="rgb(40,40,40)" vector-effect="non-scaling-stroke" stroke-width="1" stroke="rgb(40,40,40)" stroke-linejoin="miter" stroke-linecap="square" stroke-miterlimit="3"/><path d=" M 36.75 19.25 C 36.75 11.937 42.687 6 50 6 C 57.313 6 63.25 11.937 63.25 19.25 C 63.25 26.563 57.313 32.5 50 32.5 C 42.687 32.5 36.75 26.563 36.75 19.25 Z " fill="rgb(40,40,40)"/></svg>