<?xml version="1.0" standalone="no"?><!-- Generator: Gravit.io --><svg xmlns="http://www.w3.org/2000/svg" xmlns:xlink="http://www.w3.org/1999/xlink" style="isolation:isolate" viewBox="0 0 50 50" width="50" height="50"><path d="M 15.923 14.114 L 35.886 34.077 C 36.036 34.227 36.036 34.47 35.886 34.62 L 34.62 35.886 C 34.47 36.036 34.227 36.036 34.077 35.886 L 14.114 15.923 C 13.964 15.773 13.964 15.53 14.114 15.38 L 15.38 14.114 C 15.53 13.964 15.773 13.964 15.923 14.114 Z" style="stroke:none;fill:#282828;stroke-miterlimit:10;"/><path d="M 14.114 34.077 L 34.077 14.114 C 34.227 13.964 34.47 13.964 34.62 14.114 L 35.886 15.38 C 36.036 15.53 36.036 15.773 35.886 15.923 L 15.923 35.886 C 15.773 36.036 15.53 36.036 15.38 35.886 L 14.114 34.62 C 13.964 34.47 13.964 34.227 14.114 34.077 Z" style="stroke:none;fill:#282828;stroke-miterlimit:10;"/></svg>