<?xml version="1.0" standalone="no"?><!-- Generator: Gravit.io --><svg xmlns="http://www.w3.org/2000/svg" xmlns:xlink="http://www.w3.org/1999/xlink" style="isolation:isolate" viewBox="0 0 100 100" width="100" height="100"><path d="M 25.67 40 L 74.33 40 C 78.839 40 82.5 43.661 82.5 48.17 L 82.5 69.83 C 82.5 74.339 78.839 78 74.33 78 L 25.67 78 C 21.161 78 17.5 74.339 17.5 69.83 L 17.5 48.17 C 17.5 43.661 21.161 40 25.67 40 Z" style="fill:none;stroke:#282828;stroke-width:4;stroke-linecap:square;stroke-miterlimit:3;"/><path d=" M 40.5 59 C 40.5 53.757 44.757 49.5 50 49.5 C 55.243 49.5 59.5 53.757 59.5 59 C 59.5 64.243 55.243 68.5 50 68.5 C 44.757 68.5 40.5 64.243 40.5 59 Z " fill="rgb(40,40,40)"/><path d="M 64 29 L 71 29 C 72.656 29 74 30.344 74 32 L 74 36 L 61 36 L 61 32 C 61 30.344 62.344 29 64 29 Z" style="stroke:none;fill:#282828;stroke-linecap:square;stroke-miterlimit:3;"/><path d="M 46.25 21 L 53.75 21 C 55.406 21 56.75 22.344 56.75 24 L 56.75 35 L 43.25 35 L 43.25 24 C 43.25 22.344 44.594 21 46.25 21 Z" style="fill:none;stroke:#282828;stroke-width:3;stroke-linecap:square;stroke-miterlimit:3;"/></svg>