<?xml version="1.0" standalone="no"?><!-- Generator: Gravit.io --><svg xmlns="http://www.w3.org/2000/svg" xmlns:xlink="http://www.w3.org/1999/xlink" style="isolation:isolate" viewBox="0 0 105.104 100" width="105.104" height="100"><path d=" M 51.115 72.215 C 48.886 83.729 42.229 89.073 31.115 88.215 C 20.989 86.261 13.332 78.604 8.115 65.215 C 4.115 52.715 5.792 40.725 13.115 29.215 C 20.458 19.325 29.802 13.669 41.115 12.215 C 50.615 10.549 60.292 12.892 70.115 19.215 C 81.225 28.878 86.569 38.554 86.115 48.215 C 85.913 55.215 82.59 60.225 76.115 63.215 C 64.275 59.348 56.619 58.025 53.115 59.215 C 49.075 64.362 48.418 68.705 51.115 72.215 Z " fill="none" vector-effect="non-scaling-stroke" stroke-width="4" stroke="rgb(236,240,241)" stroke-opacity="100" stroke-linejoin="miter" stroke-linecap="square" stroke-miterlimit="3"/><path d=" M 17 61 C 17 57.689 19.689 55 23 55 C 26.312 55 29 57.689 29 61 C 29 64.312 26.312 67 23 67 C 19.689 67 17 64.312 17 61 Z " fill="rgb(236,240,241)"/><path d=" M 18 40 C 18 36.689 20.689 34 24 34 C 27.312 34 30 36.689 30 40 C 30 43.312 27.312 46 24 46 C 20.689 46 18 43.312 18 40 Z " fill="rgb(236,240,241)"/><path d=" M 35 28 C 35 24.689 37.689 22 41 22 C 44.312 22 47 24.689 47 28 C 47 31.312 44.312 34 41 34 C 37.689 34 35 31.312 35 28 Z " fill="rgb(236,240,241)"/><path d=" M 56 32 C 56 28.689 58.689 26 62 26 C 65.312 26 68 28.689 68 32 C 68 35.312 65.312 38 62 38 C 58.689 38 56 35.312 56 32 Z " fill="rgb(236,240,241)"/><g id="null"><path d=" M 55.115 78.215 C 55.205 69.863 64.215 54.54 82.115 32.215 L 89.115 37.215 C 72.501 63.947 61.178 77.624 55.115 78.215 Z " fill="rgb(40,40,40)" vector-effect="non-scaling-stroke" stroke-width="3" stroke="rgb(236,240,241)" stroke-opacity="100" stroke-linejoin="miter" stroke-linecap="square" stroke-miterlimit="3"/><path d=" M 98.115 13.215 C 95.654 16.599 92.664 18.275 89.115 18.215 C 82.663 21.005 79.673 24.682 80.115 29.215 L 92.115 37.215 C 96.721 35.251 99.397 32.261 100.115 28.215 C 101.174 22.288 100.517 17.298 98.115 13.215 Z " fill="rgb(40,40,40)" vector-effect="non-scaling-stroke" stroke-width="3" stroke="rgb(236,240,241)" stroke-linejoin="miter" stroke-linecap="square" stroke-miterlimit="3"/></g></svg>