<?xml version="1.0" standalone="no"?><!-- Generator: Gravit.io --><svg xmlns="http://www.w3.org/2000/svg" xmlns:xlink="http://www.w3.org/1999/xlink" style="isolation:isolate" viewBox="0 0 30 30" width="30" height="30"><path d=" M 6.774 20.229 C 8.888 20.255 10.514 19.798 11.651 18.859 C 9.957 18.468 8.931 17.681 8.572 16.499 L 10.056 16.499 C 8.117 15.795 7.248 14.649 7.449 13.06 L 8.887 13.442 C 7.316 12.227 6.979 10.721 7.876 8.925 C 9.64 11.044 11.985 12.22 14.91 12.454 C 14.571 11.195 14.863 10.124 15.787 9.24 C 16.811 8.404 17.957 8.12 19.225 8.385 C 19.911 8.697 20.406 9.042 20.709 9.419 L 22.821 8.588 C 22.369 9.403 21.912 10.002 21.45 10.386 C 21.957 10.404 22.549 10.247 23.226 9.914 C 22.746 10.608 22.199 11.2 21.585 11.689 C 21.601 13.806 21.129 15.627 20.169 17.151 C 18.966 19.045 17.505 20.312 15.787 20.949 C 12.452 22.165 9.448 21.925 6.774 20.229 Z " fill="rgb(235,235,235)"/></svg>