<?xml version="1.0" encoding="utf-8"?>
<!-- Generator: Adobe Illustrator 22.1.0, SVG Export Plug-In . SVG Version: 6.00 Build 0)  -->
<svg version="1.1" xmlns="http://www.w3.org/2000/svg" xmlns:xlink="http://www.w3.org/1999/xlink" x="0px" y="0px"
	 viewBox="0 0 600 600" style="enable-background:new 0 0 600 600;" xml:space="preserve">
<style type="text/css">
	.st0{fill:#FD5757;}
	.st1{fill:#FFFFFF;}
	.st2{fill:none;stroke:#FFFFFF;stroke-width:5;stroke-miterlimit:10;}
	.st3{fill:#FFFFFF;stroke:#FFFFFF;stroke-miterlimit:10;}
	.st4{fill:none;stroke:#FFFFFF;stroke-miterlimit:10;}
	.st5{fill:none;stroke:#FFFFFF;stroke-width:15;stroke-miterlimit:10;}
	.st6{fill:none;stroke:#FFFFFF;stroke-width:6;stroke-miterlimit:10;}
	.st7{fill:#FFFFFF;stroke:#FFFFFF;stroke-width:2.5;stroke-miterlimit:10;}
	.st8{fill:none;}
	.st9{font-family:'Arial-BoldMT';}
	.st10{font-size:90px;}
	.st11{fill:url(#SVGID_1_);}
	.st12{fill:none;stroke:#FFFFFF;stroke-width:7;stroke-miterlimit:10;}
	.st13{fill:#110007;stroke:#110007;stroke-width:2;stroke-miterlimit:10;}
	.st14{fill:url(#SVGID_2_);}
</style>
<g id="shugaring">
</g>
<g id="eyebrow_1_">
</g>
<g id="photo">
</g>
<g id="cash">
</g>
<g id="adress">
	<circle id="background_3_" class="st0" cx="301.7" cy="300" r="275"/>
	<g id="way_1_">
		<g id="way">
			<g>
				<path class="st1" d="M177.4,252c5.4,1.8,10.8,3.7,16.2,5.7c2.2,0.8,4.4,1.7,6.6,2.6c1.1,0.4,2.2,0.9,3.3,1.4
					c0.3,0.1,2.9,1.2,1.3,0.5c-1.8-0.8,1.3,0.6,1.6,0.7c1.2,0.5,2.5,1.1,3.7,1.6c2.3,1,4.6,2.1,6.9,3.2c3.7,1.8,7.4,3.7,11.1,5.7
					c6.9,3.7,13.8,7.1,21,10.2c0.8,0.4,1.7,0.8,0.4,0.2c1.2,0.6,2.4,1.2,3.5,1.8c2.1,1.2,4.1,2.5,6.2,3.7c2.9,1.7,6.1,3.1,9.2,4.3
					c1,0.4,2,0.7,3,0.9c4,0.9-1.1,1.4-4.3-3.9c-0.7-2.5-1.4-5-2-7.6c0.1,1.5,3-8.3,6.5-8.4c-0.4,0-1.3,0.4-1.7,0.5
					c-0.3,0.1-0.6,0.1-0.9,0.2c-2.5,0.8-3.7,1.4-5.5,2.8c-5.2,4,3.6-1.8-0.3,0.1c-3.4,1.7-6.7,3.3-10.2,4.7c-2,0.9,2.2-0.9-0.1,0
					c-0.7,0.3-1.4,0.6-2.1,0.9c-2.2,0.9-4.4,1.8-6.6,2.7c-5.1,2.1-10.2,4.3-15.1,6.8c-7.1,3.5-14.7,6.1-20.6,11.6
					c-9.1,8.4-11.1,21.8-1.6,30.7c6,5.6,14.3,9.7,22,12.5c0.6,0.2,1.3,0.5,1.9,0.6c1.8,0.2-3.9-2.1-2.7-1.1c1.1,1,2.9,1.6,4.1,2.3
					c4.4,2.5,8.9,4.9,13.3,7.3c11.9,6.4,24,12.6,36,19.1c24.2,13,47.6,27.6,71.2,41.5c28,16.4,56.3,32.1,85.3,46.5
					c7.3,3.6,16.2,1.9,20.5-5.4c3.9-6.6,1.9-16.9-5.4-20.5c-61-30.2-117.9-67.5-178-99.3c-10.6-5.6-21-11.8-31.8-17.3
					c-2.1-1-4.2-1.8-6.4-2.5c-0.6-0.2-1.2-0.4-1.8-0.7c0.5,0.2,3.2,1.6,0.6,0.2c-1.9-1-3.9-2-5.7-3.2c-0.9-0.5-2.8-2.4-3.7-2.4
					c2.4,0.2,0.9,14.7,1.5,14.5c-0.5,0.1,3.8-3,1.5-1.6c-1.6,1.1,0.8-0.3,1.1-0.5c9.4-4.2,18.4-8.9,27.3-12.5
					c6.6-2.7,13.5-5.2,19.7-8.6c0.7-0.4,1.3-0.8,2-1.2c5-3.3,4.2-2.6,0.5-0.5c-3.2,1.9-4.5,1.9-1.5,1c7-2.1,13.7-6.8,15.8-14.2
					c2.7-9.5-2-18.7-10.8-22.6c-5.6-2.5-6.8-2.3-12-5.4c-2.8-1.6-5.5-3.2-8.4-4.5c-1.6-0.7-3.2-1.3-4.9-2c3,1.3-0.7-0.3-1-0.5
					c-3.6-1.7-7.2-3.5-10.7-5.4c-19.6-10.5-40.1-19.3-61.3-26.3c-7.5-2.5-16.7,2.9-18.5,10.5C165,241.9,169.4,249.4,177.4,252
					L177.4,252z"/>
			</g>
		</g>
		<ellipse cx="183.7" cy="237" rx="13.2" ry="8.6"/>
		<ellipse cx="441" cy="449.5" rx="13.2" ry="8.6"/>
	</g>
	<g id="point_B">
		<path class="st7" d="M436,412.3c-4.3-6.8-11-11.9-14.8-19c-3.9-7.5-1.9-1.7-16.8-25.3c-8.4-13.4-12.7-20.1-16-26.8
			c-5.6-11.2-10-19.8-12-32.3c-1-6.1-2.4-15.2,0-26.5c1.5-6.9,6.1-22.9,20.8-35c2.1-1.7,9.7-7.8,21.5-11.3c10.2-3,18.5-2.6,20.8-2.5
			c10.7,0.7,18.4,4.2,22.3,6c10.7,5,17.2,11.6,18.8,13.3c8.4,8.8,11.9,17.8,13,20.8c4.3,11.9,3.4,22,2.8,29
			c-1,10.7-3.9,18.3-7.8,28.3c-4.5,11.6-9.3,20.2-12.8,26.3c-3.6,6.3-6.8,11.4-11.3,18.3c-4.1,6.3-7,10.6-10,15
			c0,0-2.6,3.7-10.8,14.8c-1.6,2.2-4,3.8-5.4,6.3c-0.2,0.4-0.8,1.5-1.5,1.4C436.4,412.9,436.1,412.4,436,412.3z"/>
		<rect x="404.4" y="269.6" class="st8" width="73.3" height="89.5"/>
		<text transform="matrix(1 0 0 1 404.375 334.0218)" class="st9 st10">B</text>
	</g>
	<g id="point_A">
		<path class="st7" d="M185.1,215.7c-2.6-4.1-6.6-7.1-8.9-11.4c-2.4-4.5-1.1-1-10.1-15.2c-5.1-8.1-7.6-12.1-9.6-16.1
			c-3.4-6.7-6-11.9-7.2-19.4c-0.6-3.6-1.4-9.1,0-15.9c0.9-4.2,3.6-13.8,12.5-21c1.2-1,5.8-4.7,12.9-6.8c6.1-1.8,11.1-1.6,12.5-1.5
			c6.4,0.4,11.1,2.5,13.4,3.6c6.4,3,10.3,7,11.3,8c5,5.3,7.2,10.7,7.8,12.5c2.6,7.1,2.1,13.2,1.7,17.4c-0.6,6.4-2.4,11-4.7,17
			c-2.7,7-5.6,12.1-7.7,15.8c-2.1,3.8-4.1,6.8-6.8,11c-2.4,3.8-4.2,6.4-6,9c0,0-1.5,2.2-6.5,8.9c-1,1.3-2.4,2.3-3.2,3.8
			c-0.1,0.2-0.5,0.9-0.9,0.9C185.3,216.1,185.1,215.8,185.1,215.7z"/>
		<rect x="164" y="124.7" class="st8" width="42.1" height="59.3"/>
	</g>
</g>
<g id="ear">
</g>
<g id="lips">
</g>
<g id="eye">
</g>
</svg>
