<?xml version="1.0" encoding="utf-8"?>
<!-- Generator: Adobe Illustrator 22.1.0, SVG Export Plug-In . SVG Version: 6.00 Build 0)  -->
<svg version="1.1" xmlns="http://www.w3.org/2000/svg" xmlns:xlink="http://www.w3.org/1999/xlink" x="0px" y="0px"
	 viewBox="0 0 600 600" style="enable-background:new 0 0 600 600;" xml:space="preserve">
<style type="text/css">
	.st0{fill:#FD5757;}
	.st1{fill:#FFFFFF;}
	.st2{fill:none;stroke:#FFFFFF;stroke-width:5;stroke-miterlimit:10;}
	.st3{fill:#FFFFFF;stroke:#FFFFFF;stroke-miterlimit:10;}
	.st4{fill:none;stroke:#FFFFFF;stroke-miterlimit:10;}
	.st5{fill:none;stroke:#FFFFFF;stroke-width:15;stroke-miterlimit:10;}
	.st6{fill:none;stroke:#FFFFFF;stroke-width:6;stroke-miterlimit:10;}
	.st7{fill:#FFFFFF;stroke:#FFFFFF;stroke-width:2.5;stroke-miterlimit:10;}
	.st8{fill:url(#SVGID_1_);}
	.st9{fill:none;stroke:#FFFFFF;stroke-width:7;stroke-miterlimit:10;}
	.st10{fill:#110007;stroke:#110007;stroke-width:2;stroke-miterlimit:10;}
	.st11{fill:url(#SVGID_2_);}
</style>
<g id="shugaring">
</g>
<g id="eyebrow_1_">
</g>
<g id="photo">
</g>
<g id="cash">
</g>
<g id="adress">
</g>
<g id="ear">
	<circle id="background_2_" class="st0" cx="300" cy="300" r="275"/>
	<g id="ear_1_">
		<g>
			<g>
				<path class="st1" d="M373.6,173c5.2,10.6,6,21,6,32.6c0,10.4-0.6,20.7-2.1,30.9c-1,7.3-1.6,14.6-1.7,22
					c-0.2,9.7-2.1,19.7-1,29.3c1.6,13.5,9.2,26,12.3,39.2c2.4,10,3.9,20.9,1.4,31c-2.4,9.6-3.1,19.7,0.6,29.2
					c8.6,22.3,7.7,46.8,7.5,70.3c0,4.8,7.5,4.8,7.5,0c0.2-21.3,1.3-44.6-5.1-65.2c-1.3-4.2-3.4-8.1-4.2-12.4
					c-1.1-5.3-1-11.3,0.2-16.6c2.3-10.2,2.7-19.6,1.1-30c-2.4-15.3-9.8-28.7-13.3-43.6c-2.1-9.1,0.2-19.3,0.5-28.4
					c0.3-7.7,0.5-15.2,1.5-22.8c3.1-22.7,5.8-48.2-4.7-69.3C377.9,164.9,371.5,168.7,373.6,173L373.6,173z"/>
			</g>
		</g>
		<g>
			<g>
				<path class="st1" d="M396,453.6c-1.9,4.7-3.7,9.5-5.4,14.3c-0.2,0.4-1.3,3.2-0.8,2.3c-1,2.2-2.5,4.2-4.1,5.9
					c-6.1,6.3-15.4,9.2-23.5,4.9c-9-4.8-17.3-11.9-22-21c-2.1-4-3.7-7.6-7.1-10.8c-3.8-3.6-8.6-5.5-12.9-8.4
					c-7-4.7-13.1-11.5-19.1-17.4c-5.9-5.8-11.6-11.7-17.5-17.6c-12-11.9-22.2-24.5-32.4-38.1c-12.6-16.7-25-34.6-31.8-54.5
					c-6.8-19.6-13.6-39-14.8-59.9c-1.2-21.5,1.5-42.6,7.5-63.3c3.4-11.8,9.7-22,16-32.4c5.6-9.2,11.6-17.3,20.1-24.1
					c9.3-7.4,20.4-12.8,32-15.1c13.2-2.7,28-3,40.9,1.2c11.2,3.7,21,9.5,28.9,18.3c4.8,5.5,9.4,11.1,13.6,17.1
					c3.9,5.7,8.1,11.1,10.3,17.7c1.8,5.5,10.5,3.1,8.7-2.4c-3.9-12.1-12.9-23-20.9-32.7c-8.1-9.7-16.3-17.6-28-22.8
					c-21.6-9.5-47.4-10-69.4-1c-11.2,4.6-21.3,11.4-29.8,20c-8.4,8.6-14.4,19.4-20.4,29.8c-11.5,19.8-16.8,43.6-18.3,66.4
					c-0.8,11.9-0.4,24,1.1,35.8c1.4,10.6,4.4,20.4,7.7,30.6c3.3,10.1,6.2,20.4,10.6,30.1c5.4,11.9,12.3,23.1,19.8,33.7
					c7.1,10.1,14.6,19.9,22.2,29.6c4.2,5.3,8.4,10.6,13.2,15.3c13.6,13.4,26.7,28.1,41.5,40.2c4,3.3,8.6,5.2,12.8,8.2
					c5,3.5,6.4,8.6,9.6,13.5c6.2,9.8,16.9,19.4,27.9,23.3c10.2,3.7,21.5-0.1,29.2-7.3c7.6-7.2,9.9-18,13.6-27.4
					C406.8,450.6,398.1,448.3,396,453.6L396,453.6z"/>
			</g>
		</g>
		<g>
			<g>
				<path class="st1" d="M354.7,388.2c-9.5,2.4-19.9,2.8-29.4-0.2c-9.4-2.9-17.3-9.2-24.4-15.8c-10.2-9.6-20.8-18.9-29.8-29.6
					c-13.4-15.8-23.9-34.7-25.4-55.7c-1.1-15,2.4-30.6,5.1-45.2c3.7-19.8,12.3-38,25.8-53.1c2.6-2.9-1.6-7.1-4.2-4.2
					c-12.5,13.8-22.3,31.3-26.2,49.6c-3.4,16-7.2,33.5-6.7,50c1.3,39,29.4,66.3,55.9,91.3c7.9,7.4,16.4,14.4,26.7,18.1
					c10.9,3.9,23.1,3.5,34.2,0.7C360,393.1,358.4,387.3,354.7,388.2L354.7,388.2z"/>
			</g>
		</g>
		<g>
			<g>
				<path class="st1" d="M334.1,273.3c14.5-19.1,24.6-39.5,24.2-63.9c-0.2-12.2-1.6-23.5-7.9-34.2c-5.1-8.6-12.4-17.5-21.6-21.8
					c-9.8-4.7-22.3-4.7-32.9-3.6c-10.7,1.2-21.5,4.2-30.9,9.4c-10,5.5-18.6,13.6-24.5,23.3c-6.2,10-10.8,22.9-12.8,34.5
					c-4.5,25.5,1.6,53.1,10.7,76.9c1.4,3.6,7.2,2,5.8-1.6c-7.5-19.6-11.6-39.4-11.6-60.4c0-12.1,3.1-22.8,7.3-34.1
					c3.5-9.3,8.4-17.4,15.6-24.2c16-15.2,40.4-20.8,61.9-17.4c11.1,1.7,18.8,9,25.1,17.8c7,9.7,9.4,20.4,9.8,32.2
					c0.4,10.5-0.6,20.7-3.9,30.7c-4.2,12.3-11.5,23.2-19.3,33.4C326.6,273.4,331.8,276.4,334.1,273.3L334.1,273.3z"/>
			</g>
		</g>
		<g>
			<g>
				<path class="st1" d="M399.1,416.6c3.9,0,3.9-6,0-6C395.2,410.6,395.2,416.6,399.1,416.6L399.1,416.6z"/>
			</g>
		</g>
		<g>
			<g>
				<path class="st1" d="M331.7,215.7c-8.1,9.6-18.1,17.4-26.4,26.8c-3.7,4.2-8.2,7.7-11.9,11.9c-4.2,4.8-7.1,10.8-8.7,16.9
					c-3.6,13.6,0,28.6,5.3,41.2c4.6,11,12.4,18.4,23.2,23.5c5.4,2.6,11.1,5,16.8,6.9c2.1,0.7,4.4,1.2,6.1,2.6c2.5,2,4.1,5.2,5.7,7.9
					c4.5,7.5,9,20.6,18.6,22.8c11.5,2.6,21.4-7.3,19.9-18.5c-0.9-6.2-5-11.9-9.6-16c-5.4-4.8-13.3-8.2-15.7-15.4
					c-1.5-4.7-0.7-10.6-0.6-15.4c0.1-5.4,2.7-10.7,0.3-15.9c-2.7-5.9-9-7.1-14.4-4c-5.1,2.9-7,7.6-9.4,12.7c-1.6,3.5,3.6,6.5,5.2,3
					c1.5-3.2,2.7-7.1,5.5-9.4c2.7-2.2,6.7-2.9,8,1c0.9,2.9-0.5,6.1-0.9,9c-0.5,3.7-0.1,7.5-0.3,11.3c-0.1,3.8-0.1,7,1.3,10.6
					c4.2,10.9,17.2,14.1,22.8,24.2c3,5.4,3,13.4-3.7,16.2c-6.1,2.5-10.4-0.3-13.8-5.3c-4.8-7.1-7.8-16.1-13.9-22.3
					c-2.3-2.3-5.1-3.4-8.2-4.4c-5.4-1.8-10.7-3.9-15.9-6.4c-9.5-4.5-16.8-10.3-21.1-20c-5-11.3-8.6-25.1-5.7-37.4
					c1.4-6.1,4.3-12.2,8.8-16.6c3.8-3.7,7.7-7.2,11.2-11.2c8-9.3,17.8-16.6,25.7-26C338.4,217,334.2,212.7,331.7,215.7L331.7,215.7z
					"/>
			</g>
		</g>
		<g>
			<g>
				<path class="st1" d="M339.3,302.9c0.8-0.9,1.5-1.6,2.6-2c0.7-0.3,3.1-0.9,3.8-0.8c1.8,0.5,3,4.5,3.2,6c0.4,3.8,6.4,3.8,6,0
					c-0.4-4.2-2.7-10.1-7.1-11.7c-2.1-0.7-4.7,0-6.8,0.4c-2.4,0.6-4.3,1.8-6,3.7C332.5,301.6,336.7,305.8,339.3,302.9L339.3,302.9z"
					/>
			</g>
		</g>
	</g>
	<polygon id="earring" class="st7" points="369.2,431.9 370.7,428.2 371.5,432.2 373.8,428.9 373.7,432.9 376.7,430.2 375.8,434.1 
		379.2,432 377.5,435.6 381.3,434.3 378.9,437.5 382.9,437.1 379.9,439.7 383.8,440 380.4,442 384.2,443.2 380.4,444.3 383.8,446.3 
		379.9,446.6 382.9,449.3 378.9,448.8 381.3,452 377.5,450.7 379.2,454.3 375.8,452.3 376.7,456.2 373.7,453.4 373.8,457.4 
		371.5,454.2 370.7,458.1 369.2,454.4 367.6,458.1 366.8,454.2 364.5,457.4 364.6,453.4 361.7,456.2 362.6,452.3 359.1,454.3 
		360.8,450.7 357,452 359.4,448.8 355.5,449.3 358.5,446.6 354.5,446.3 358,444.3 354.2,443.2 358,442 354.5,440 358.5,439.7 
		355.5,437.1 359.4,437.5 357,434.3 360.8,435.6 359.1,432 362.6,434.1 361.7,430.2 364.6,432.9 364.5,428.9 366.8,432.2 
		367.6,428.2 	"/>
</g>
<g id="lips">
</g>
<g id="eye">
</g>
</svg>
