<?xml version="1.0" encoding="utf-8"?>
<!-- Generator: Adobe Illustrator 22.1.0, SVG Export Plug-In . SVG Version: 6.00 Build 0)  -->
<svg version="1.1" xmlns="http://www.w3.org/2000/svg" xmlns:xlink="http://www.w3.org/1999/xlink" x="0px" y="0px"
	 viewBox="0 0 600 600" style="enable-background:new 0 0 600 600;" xml:space="preserve">
<style type="text/css">
	.st0{fill:#FD5757;}
	.st1{fill:#FFFFFF;}
	.st2{fill:none;stroke:#FFFFFF;stroke-width:5;stroke-miterlimit:10;}
	.st3{fill:#FFFFFF;stroke:#FFFFFF;stroke-miterlimit:10;}
	.st4{fill:none;stroke:#FFFFFF;stroke-miterlimit:10;}
	.st5{fill:none;stroke:#FFFFFF;stroke-width:15;stroke-miterlimit:10;}
	.st6{fill:none;stroke:#FFFFFF;stroke-width:6;stroke-miterlimit:10;}
	.st7{fill:#FFFFFF;stroke:#FFFFFF;stroke-width:2.5;stroke-miterlimit:10;}
	.st8{fill:url(#SVGID_1_);}
	.st9{fill:none;stroke:#FFFFFF;stroke-width:7;stroke-miterlimit:10;}
	.st10{fill:#110007;stroke:#110007;stroke-width:2;stroke-miterlimit:10;}
	.st11{fill:url(#SVGID_2_);}
</style>
<g id="shugaring">
</g>
<g id="eyebrow_1_">
</g>
<g id="photo">
</g>
<g id="cash">
</g>
<g id="adress">
</g>
<g id="ear">
</g>
<g id="lips">
</g>
<g id="eye">
	<circle id="background" class="st0" cx="298" cy="297" r="275"/>
	<g id="eye_1_">
		<g>
			<radialGradient id="SVGID_1_" cx="298.1446" cy="295.1661" r="74.2145" gradientUnits="userSpaceOnUse">
				<stop  offset="0" style="stop-color:#FFFFFF"/>
				<stop  offset="1" style="stop-color:#414141"/>
			</radialGradient>
			<circle class="st8" cx="298.1" cy="295.2" r="74.2"/>
			<g>
				<path class="st1" d="M369.4,295.2c-0.3,29.5-18.6,56.6-46.5,66.8c-28.1,10.3-60.3,1.7-79.5-21.3c-19.1-22.9-21.7-56.5-6.4-82
					c15.4-25.7,46.1-39.4,75.5-33.3C345.4,232.2,369,261.7,369.4,295.2c0,3.9,6,3.9,6,0c-0.3-32.3-20.5-61.5-50.9-72.6
					c-30.2-11-65.3-1.4-85.7,23.4c-20.7,25.1-23.5,61.5-6.6,89.4c16.7,27.3,49.2,41.6,80.6,35.7c36.2-6.8,62.3-39.3,62.6-75.8
					C375.4,291.3,369.4,291.3,369.4,295.2z"/>
			</g>
		</g>
		<path class="st9" d="M129.5,316.9c8.2-4.5,9.8-11.6,15.4-20.1c3.7-5.5,9.6-10.3,21.6-20.1c10.8-8.8,19.8-14.5,26.2-18.5
			c7-4.4,14.3-9,24.7-13.9c9.6-4.6,16.9-7.1,27.8-10.8c17.4-5.9,26.1-8.8,34.6-10.3c8.4-1.5,17.2-2.5,28.4-1.6
			c11.2,0.9,24.8,3.8,42.7,7.3c17.7,3.5,26.2,7,33.5,9.3c22.8,6.9,26.2,11.9,64.8,29c10.4,4.6,19.2,12.6,30.1,15.9
			c1,0.3,5,1.5,5.1,3.3c0.1,1.4-2,2.5-2.6,2.8c-4,2.3,17.9-8.5-21.9,18c-15.4,10.3-23.2,15.4-31.6,20.3
			c-11.2,6.5-24.2,13.9-42.4,21.3c-19.5,7.9-35.3,11.9-40.6,13.1c-6.8,1.6-40.2,9.2-84.6,6.2c-15.9-1.1-26.4-1.8-40.4-5.9
			c-11.2-3.3-26.7-7.8-40.1-15.2c-1.6-0.9-6.9-3.8-14.4-5.9c-4.3-1.2-9-2.5-14.9-2.1c-4.4,0.3-4.9,1.3-16.2,4.9
			c-8.3,2.6-6.4,1.6-15.4,4.4c-8,2.5-11.4,3.9-16.7,3.3c-4.7-0.5-6.7-2-7.7-2.8c-0.5-0.4-3.9-3.5-3.6-7.7c0.2-3.1,2.2-5,5.4-8
			c1.5-1.4,4.7-4.1,10.8-7.2c4.2-2.1,5.3-2.1,12.6-5.1C124.5,319.2,127.5,318,129.5,316.9z"/>
		<g>
			<g>
				<path class="st1" d="M75.4,349.8c-0.4-3.5-0.7-7.6,1.6-10.6c1.7-2.2,4.5-3.9,6.5-5.8c5.4-5.2,10.1-10.9,15.7-15.9
					c2.9-2.6-1.4-6.8-4.2-4.2c-6.6,6-12.2,13.2-19,18.9c-5.7,4.8-7.5,10.2-6.6,17.7C69.9,353.6,75.9,353.6,75.4,349.8L75.4,349.8z"
					/>
			</g>
		</g>
		<g>
			<g>
				<path class="st1" d="M85.6,295.1c20-27.2,45-50.3,73.5-68.3c29.5-18.6,63-33.5,97.9-37.6c62.3-7.4,124.3,2.9,181.2,29.2
					c16.2,7.5,32.8,15,47.9,24.7c14.2,9.2,27.9,19.2,42.2,28.3c5.4,3.5,10.5-5.2,5-8.6c-13.2-8.4-26-17.4-39-26.1
					c-13.8-9.3-28.9-16.3-43.9-23.5c-32.8-15.6-67.1-27.2-103.1-32.7c-27.5-4.2-55.2-4.4-82.9-2c-35.4,3.1-68.5,15.4-99.2,32.9
					c-34.7,19.8-64.8,46.4-88.4,78.7C73.2,295.2,81.8,300.2,85.6,295.1L85.6,295.1z"/>
			</g>
		</g>
		<circle class="st10" cx="298.1" cy="291.2" r="26"/>
		<radialGradient id="SVGID_2_" cx="304.3975" cy="273.8755" r="9.8835" gradientUnits="userSpaceOnUse">
			<stop  offset="0" style="stop-color:#FFFFFF"/>
			<stop  offset="0.8974" style="stop-color:#000000"/>
		</radialGradient>
		<ellipse class="st11" cx="304.4" cy="273.9" rx="11" ry="8.7"/>
	</g>
	<g id="eyelashes_1_">
		<g>
			<g>
				<path class="st1" d="M327.2,379.9c5.2,3.6,10.5,7.2,15.7,10.8c3.2,2.2,6.2-3,3-5.2c-5.2-3.6-10.5-7.2-15.7-10.8
					C327,372.5,324,377.7,327.2,379.9L327.2,379.9z"/>
			</g>
		</g>
		<g>
			<g>
				<path class="st1" d="M151.9,264.5c-2,7.4-3.9,14.7-5.9,22.1c-0.9,3.3,4.2,4.7,5.1,1.4c2-7.4,3.9-14.7,5.9-22.1
					C157.8,262.6,152.8,261.2,151.9,264.5L151.9,264.5z"/>
			</g>
		</g>
		<g>
			<g>
				<path class="st1" d="M177.1,229.8c-3.6,13.1-7.2,26.2-10.8,39.3c-0.9,3.3,4.2,4.7,5.1,1.4c3.6-13.1,7.2-26.2,10.8-39.3
					C183.1,227.9,178,226.5,177.1,229.8L177.1,229.8z"/>
			</g>
		</g>
		<g>
			<g>
				<path class="st1" d="M203.1,220.3c-3.7,10.3-7.4,20.6-11.1,30.9c-1.1,3.2,3.9,4.6,5.1,1.4c3.7-10.3,7.4-20.6,11.1-30.9
					C209.3,218.5,204.2,217.1,203.1,220.3L203.1,220.3z"/>
			</g>
		</g>
		<g>
			<g>
				<path class="st1" d="M223.9,210.3c-4.2,10.5-8.4,20.9-12.6,31.4c-1.3,3.1,3.8,4.5,5.1,1.4c4.2-10.5,8.4-20.9,12.6-31.4
					C230.2,208.5,225.1,207.2,223.9,210.3L223.9,210.3z"/>
			</g>
		</g>
		<g>
			<g>
				<path class="st1" d="M243.2,201.9c-4.7,10.5-9.4,20.9-14.1,31.4c-1.4,3.1,3.1,5.7,4.5,2.6c4.7-10.5,9.4-20.9,14.1-31.4
					C249.1,201.5,244.6,198.8,243.2,201.9L243.2,201.9z"/>
			</g>
		</g>
		<g>
			<g>
				<path class="st1" d="M261.9,200.4c-5.1,9.3-10.1,18.5-15.2,27.8c-1.6,3,2.9,5.6,4.5,2.6c5.1-9.3,10.1-18.5,15.2-27.8
					C268.1,200.1,263.6,197.4,261.9,200.4L261.9,200.4z"/>
			</g>
		</g>
		<g>
			<g>
				<path class="st1" d="M286.9,195c-5,8.3-9.9,16.7-14.9,25c-1.7,2.9,2.8,5.6,4.5,2.6c5-8.3,9.9-16.7,14.9-25
					C293.1,194.7,288.6,192.1,286.9,195L286.9,195z"/>
			</g>
		</g>
		<g>
			<g>
				<path class="st1" d="M309.2,195.8c-5.6,7.3-11.1,14.6-16.7,21.9c-2.1,2.7,2.5,5.3,4.5,2.6c5.6-7.3,11.1-14.6,16.7-21.9
					C315.8,195.7,311.3,193.1,309.2,195.8L309.2,195.8z"/>
			</g>
		</g>
		<g>
			<g>
				<path class="st1" d="M327,199.6c-4.5,6-8.9,12-13.4,18c-2,2.7,2.5,5.3,4.5,2.6c4.5-6,8.9-12,13.4-18
					C333.5,199.5,329,196.9,327,199.6L327,199.6z"/>
			</g>
		</g>
		<g>
			<g>
				<path class="st1" d="M343.8,204.2c-4.1,5.1-8.2,10.1-12.3,15.2c-2.1,2.6,1.6,6.3,3.7,3.7c4.1-5.1,8.2-10.1,12.3-15.2
					C349.7,205.3,346,201.6,343.8,204.2L343.8,204.2z"/>
			</g>
		</g>
		<g>
			<g>
				<path class="st1" d="M359.9,208.6c-4.2,5.6-8.4,11.1-12.6,16.7c-2,2.7,2.5,5.3,4.5,2.6c4.2-5.6,8.4-11.1,12.6-16.7
					C366.4,208.6,361.9,205.9,359.9,208.6L359.9,208.6z"/>
			</g>
		</g>
		<g>
			<g>
				<path class="st1" d="M377.9,208.6c-4.9,6.5-9.8,13-14.7,19.5c-2,2.7,2.5,5.3,4.5,2.6c4.9-6.5,9.8-13,14.7-19.5
					C384.4,208.6,379.9,205.9,377.9,208.6L377.9,208.6z"/>
			</g>
		</g>
		<g>
			<g>
				<path class="st1" d="M391.8,212.4c-5.1,6.7-10.1,13.4-15.2,20.2c-2,2.7,2.5,5.3,4.5,2.6c5.1-6.7,10.1-13.4,15.2-20.2
					C398.3,212.3,393.8,209.7,391.8,212.4L391.8,212.4z"/>
			</g>
		</g>
		<g>
			<g>
				<path class="st1" d="M411.4,217.8c-5.7,6.9-11.3,13.9-17,20.8c-2.1,2.6,1.6,6.3,3.7,3.7c5.7-6.9,11.3-13.9,17-20.8
					C417.3,219,413.6,215.2,411.4,217.8L411.4,217.8z"/>
			</g>
		</g>
		<g>
			<g>
				<path class="st1" d="M425.4,222.4c-5.3,7.4-10.6,14.8-15.9,22.2c-2,2.7,2.6,5.4,4.5,2.6c5.3-7.4,10.6-14.8,15.9-22.2
					C431.9,222.3,427.4,219.7,425.4,222.4L425.4,222.4z"/>
			</g>
		</g>
		<g>
			<g>
				<path class="st1" d="M441.3,228.3c-6.9,7.6-13.7,15.2-20.6,22.7c-2.3,2.5,1.4,6.2,3.7,3.7c6.9-7.6,13.7-15.2,20.6-22.7
					C447.2,229.5,443.5,225.7,441.3,228.3L441.3,228.3z"/>
			</g>
		</g>
		<g>
			<g>
				<path class="st1" d="M456.9,235.4c-7.3,7.6-14.6,15.2-21.9,22.9c-2.3,2.4,1.4,6.2,3.7,3.7c7.3-7.6,14.6-15.2,21.9-22.9
					C463,236.6,459.3,232.9,456.9,235.4L456.9,235.4z"/>
			</g>
		</g>
		<g>
			<g>
				<path class="st1" d="M469.3,243.5c-6.9,6.6-13.9,13.2-20.8,19.8c-2.5,2.3,1.3,6,3.7,3.7c6.9-6.6,13.9-13.2,20.8-19.8
					C475.4,244.9,471.7,241.2,469.3,243.5L469.3,243.5z"/>
			</g>
		</g>
		<g>
			<g>
				<path class="st1" d="M486.5,253.4c-7.6,6.4-15.3,12.8-22.9,19.2c-2.6,2.2,1.1,5.9,3.7,3.7c7.6-6.4,15.3-12.8,22.9-19.2
					C492.8,255,489.1,251.3,486.5,253.4L486.5,253.4z"/>
			</g>
		</g>
		<g>
			<g>
				<path class="st1" d="M500.9,261.4c-8.4,5.7-16.9,11.3-25.3,17c-2.8,1.9-0.2,6.4,2.6,4.5c8.4-5.7,16.9-11.3,25.3-17
					C506.4,264.1,503.7,259.5,500.9,261.4L500.9,261.4z"/>
			</g>
		</g>
		<g>
			<g>
				<path class="st1" d="M513.5,269.9c-9.5,4.5-19,9.1-28.5,13.6c-3,1.5-0.4,6,2.6,4.5c9.5-4.5,19-9.1,28.5-13.6
					C519.2,273,516.5,268.4,513.5,269.9L513.5,269.9z"/>
			</g>
		</g>
		<g>
			<g>
				<path class="st1" d="M524.9,280.9c-8.4,3-16.7,6.1-25.1,9.1c-3.1,1.1-1.8,6.2,1.4,5.1c8.4-3,16.7-6.1,25.1-9.1
					C529.5,284.8,528.1,279.8,524.9,280.9L524.9,280.9z"/>
			</g>
		</g>
		<g>
			<g>
				<path class="st1" d="M469.4,326.9c15.3,6.3,30.5,12.7,45.8,19c3.1,1.3,4.5-3.8,1.4-5.1c-15.3-6.3-30.5-12.7-45.8-19
					C467.7,320.5,466.3,325.6,469.4,326.9L469.4,326.9z"/>
			</g>
		</g>
		<g>
			<g>
				<path class="st1" d="M451.8,336.1c9.4,4.6,18.9,9.3,28.3,13.9c3,1.5,5.7-3,2.6-4.5c-9.4-4.6-18.9-9.3-28.3-13.9
					C451.4,330.1,448.8,334.6,451.8,336.1L451.8,336.1z"/>
			</g>
		</g>
		<g>
			<g>
				<path class="st1" d="M426.6,349.7c8.1,5.1,16.3,10.3,24.4,15.4c2.9,1.8,5.5-2.7,2.6-4.5c-8.1-5.1-16.3-10.3-24.4-15.4
					C426.4,343.4,423.8,347.9,426.6,349.7L426.6,349.7z"/>
			</g>
		</g>
		<g>
			<g>
				<path class="st1" d="M392.2,366.9c3.5,1.6,7,3.1,10.5,4.7c3.1,1.4,5.7-3.2,2.6-4.5c-3.5-1.6-7-3.1-10.5-4.7
					C391.8,361.1,389.1,365.6,392.2,366.9L392.2,366.9z"/>
			</g>
		</g>
		<g>
			<g>
				<path class="st1" d="M357.5,371.6c6.5,3.4,13,6.8,19.5,10.2c3,1.6,5.6-3,2.6-4.5c-6.5-3.4-13-6.8-19.5-10.2
					C357.1,365.6,354.5,370.1,357.5,371.6L357.5,371.6z"/>
			</g>
		</g>
		<g>
			<g>
				<path class="st1" d="M276.2,382.2c6.7,5.4,13.4,10.8,20.1,16.2c2.6,2.1,6.3-1.6,3.7-3.7c-6.7-5.4-13.4-10.8-20.1-16.2
					C277.3,376.4,273.6,380.1,276.2,382.2L276.2,382.2z"/>
			</g>
		</g>
		<g>
			<g>
				<path class="st1" d="M236.4,373.5c5.7,6.5,11.5,13,17.2,19.5c2.2,2.5,5.9-1.2,3.7-3.7c-5.7-6.5-11.5-13-17.2-19.5
					C237.9,367.2,234.2,371,236.4,373.5L236.4,373.5z"/>
			</g>
		</g>
		<g>
			<g>
				<path class="st1" d="M190.9,362.4c9.1,7.4,18.2,14.7,27.2,22.1c2.6,2.1,6.3-1.6,3.7-3.7c-9.1-7.4-18.2-14.7-27.2-22.1
					C192,356.6,188.3,360.3,190.9,362.4L190.9,362.4z"/>
			</g>
		</g>
		<g>
			<g>
				<path class="st1" d="M409.4,356.4c5.1,2.8,10.1,5.7,15.2,8.5c3,1.7,5.6-2.9,2.6-4.5c-5.1-2.8-10.1-5.7-15.2-8.5
					C409.1,350.2,406.4,354.8,409.4,356.4L409.4,356.4z"/>
			</g>
		</g>
	</g>
</g>
</svg>
