<?xml version="1.0" encoding="utf-8"?>
<!-- Generator: Adobe Illustrator 22.1.0, SVG Export Plug-In . SVG Version: 6.00 Build 0)  -->
<svg version="1.1" xmlns="http://www.w3.org/2000/svg" xmlns:xlink="http://www.w3.org/1999/xlink" x="0px" y="0px"
	 viewBox="0 0 600 600" style="enable-background:new 0 0 600 600;" xml:space="preserve">
<style type="text/css">
	.st0{fill:#FD5757;}
	.st1{fill:#FFFFFF;}
	.st2{fill:none;stroke:#FFFFFF;stroke-width:5;stroke-miterlimit:10;}
	.st3{fill:#FFFFFF;stroke:#FFFFFF;stroke-miterlimit:10;}
	.st4{fill:none;stroke:#FFFFFF;stroke-miterlimit:10;}
	.st5{fill:none;stroke:#FFFFFF;stroke-width:15;stroke-miterlimit:10;}
	.st6{fill:none;stroke:#FFFFFF;stroke-width:6;stroke-miterlimit:10;}
	.st7{fill:#FFFFFF;stroke:#FFFFFF;stroke-width:2.5;stroke-miterlimit:10;}
	.st8{fill:url(#SVGID_1_);}
	.st9{fill:none;stroke:#FFFFFF;stroke-width:7;stroke-miterlimit:10;}
	.st10{fill:#110007;stroke:#110007;stroke-width:2;stroke-miterlimit:10;}
	.st11{fill:url(#SVGID_2_);}
</style>
<g id="shugaring">
</g>
<g id="eyebrow_1_">
</g>
<g id="photo">
</g>
<g id="cash">
</g>
<g id="adress">
</g>
<g id="ear">
</g>
<g id="lips">
	<circle id="background_1_" class="st0" cx="300" cy="300" r="275"/>
	<g id="lips_1_">
		<g>
			<g>
				<path class="st1" d="M85.5,277c-4.7,5.6-4.9,1.2-3.8,1.8c-0.6-0.3,2.1,0.4,1.9,0.4c2,0.4,4,0.7,6,0.9c5.7,0.7,11.5,0.4,17.1-0.9
					c7.1-1.6,14.2-4.7,20.6-8.1c12.9-6.9,24.7-15.8,36.9-23.8c14-9.2,28.8-16.9,44.1-23.6c14.4-6.2,30.1-7.9,45.3-3.4
					c8.2,2.4,15.9,6.6,22.6,11.7c4.2,3.2,9.2,9.5,13.9,13.6c6,5.3,14.2,5.7,20.2,0.2c2.6-2.3,4.5-5.2,6.7-7.8
					c3.8-4.4,8.2-8,13.3-10.9c14-7.8,32.2-10.2,47.8-7.7c17,2.7,33.4,11.8,47.9,20.9c15.9,10,29.5,23,45.4,33
					c5.6,3.5,11.7,6.1,18.1,7.6c5.7,1.3,11.7,1.9,17.5,1.6c2.7-0.2,5.4-0.6,8.1-1c1-0.2,1.9-0.4,2.9-0.6c4.6-0.9-0.4,0.9-3.7-2.3
					c-0.7-1.8-1.5-3.5-2.2-5.3c0,0.1,0,0.1,0,0.2c0.3-1.3,0.7-2.5,1-3.8c0.7-1.4,2.5-2,0.5-1.1c-1.3,0.6-2.5,1.3-3.7,1.9
					c-3.6,1.8-7.1,3.7-10.5,5.8c-6.5,3.9-13,8.4-18.5,13.8c-10.9,10.8-21.4,21.7-33.3,31.4c-12.5,10.1-26.6,18.9-40.5,27.4
					c-14.2,8.6-28.8,16.5-44.4,22.3c-31.9,11.9-66.7,14.3-99.9,6.6c-34.2-7.9-64.9-26-93.2-46.2c-13.7-9.7-26.9-20-39.9-30.6
					c-6.8-5.6-13.9-10.9-21-16.2c-5-3.7-9.9-7.4-14.9-11.1c-2-1.5-4-3-6.1-4.5c-1.9-1.3-0.9-1.5-0.4,0.6c0,1.3,0,2.7,0,4
					c0-0.1,0-0.2,0-0.3c1.7-9.4-12.8-13.5-14.5-4c-1.5,8.5,7.6,12.9,13.4,17.1c8.5,6.2,17.1,12.3,25.3,18.8
					c11.8,9.3,23.3,18.9,35.3,28c31.3,23.6,64.8,45.4,102.8,56.4c36.9,10.7,77.3,9.7,113.6-3c17.5-6.1,34-14.6,49.8-24.1
					c16-9.7,31.6-19.7,46.1-31.5c7.9-6.4,15.5-13.2,22.7-20.4c4-4,7.6-8.4,11.8-12.2c6.7-6,14.7-10.5,22.7-14.6
					c5.3-2.7,14-6.9,9.6-14.5c-2.2-3.9-6.4-4.2-10.3-3.5c-4.2,0.7-8.1,1.5-12.4,1.5c-4.3,0-8.5-0.7-12.6-1.9
					c-2.7-0.8-4.5-1.4-5.9-2.1c-13.7-6.9-25.2-17.6-37.4-26.8c-28.8-21.8-65.2-39.4-102-31c-8.1,1.9-16.2,4.5-23.4,8.7
					c-4.7,2.7-9.1,6.1-12.9,9.9c-2.9,2.9-5.2,6.4-8.1,9.4c-0.4,0.5-1.9,2-0.6,0.9c0.5-0.4,0.8,0.7-0.1-0.2c-2.8-3-5.5-6.1-8.5-8.9
					c-4.9-4.7-10.5-8.8-16.4-12.2c-16-9.2-34.2-12.5-52.5-9.9c-15.5,2.2-30.3,10.2-44,17.4c-13.7,7.2-26.2,16-39.1,24.4
					c-12.3,8-26.7,18.7-41.9,19.8c-4.5,0.3-8.7-0.4-13.1-1.1c-3.5-0.6-7.6-0.9-10.2,2.2C68.8,273.7,79.3,284.4,85.5,277z"/>
			</g>
		</g>
		<g>
			<g>
				<path class="st1" d="M80.5,278.2c6.2,4.9,13,8.5,21,9.7c7.6,1.1,14.3,2.6,21.4,5.8c8.5,3.8,15.4,3.5,24.5,2.9
					c17.1-1.2,34.1-1.5,51.2-1.3c13.5,0.1,27.1-0.1,40.4,2.7c15.9,3.3,29.7,9.8,43.6,17.8c8.3,4.8,17.7,7,26.4,2.1
					c12.7-7,25.7-13.7,39.8-17.4c15.5-4.1,32.6-5.6,48.6-5.5c17.3,0.1,34.4,2.3,51.7,2c19.8-0.4,38.5-4.3,56.5-12.5
					c3.7-1.7,4.5-7,2.7-10.3c-2.2-3.8-6.6-4.3-10.3-2.7c-28.8,13-59.6,10.8-90.3,8.8c-16.5-1.1-32.9,0.7-49.3,3
					c-16.8,2.4-32.4,8.7-47.5,16.3c-3.7,1.9-7.2,4.2-11,6c2.1-1-1.3,0-1,0c-2.1,0.1-3.2-0.1-5.1-0.9c-5.1-2.1-10.4-6.1-15.5-8.8
					c-8.1-4.2-16.7-7.6-25.5-10.2c-12.2-3.5-24.6-5-37.2-5.4c-15.9-0.4-31.9-0.5-47.9,0c-8.8,0.3-17.6,0.9-26.4,1.5
					c-2,0.1-4,0.2-6,0.2c-0.4,0-0.7,0-1.1-0.1c-1.6,0,1.2,0.3,0.3,0c-0.7-0.2-1.4-0.3-2.1-0.6c-1.5-0.5,0.1,0.1-1.3-0.5
					c-1.6-0.7-3.1-1.4-4.7-2.1c-4-1.7-8.1-3.3-12.4-4.3c-8.3-2-16.2-1.5-23.2-7.1c-3.2-2.5-7.5-3.1-10.6,0
					C77.8,270.2,77.3,275.7,80.5,278.2L80.5,278.2z"/>
			</g>
		</g>
	</g>
</g>
<g id="eye">
</g>
</svg>
