<?xml version="1.0" encoding="utf-8"?>
<!-- Generator: Adobe Illustrator 22.1.0, SVG Export Plug-In . SVG Version: 6.00 Build 0)  -->
<svg version="1.1" xmlns="http://www.w3.org/2000/svg" xmlns:xlink="http://www.w3.org/1999/xlink" x="0px" y="0px"
	 viewBox="0 0 600 600" style="enable-background:new 0 0 600 600;" xml:space="preserve">
<style type="text/css">
	.st0{fill:#FD5757;}
	.st1{fill:#FFFFFF;}
	.st2{fill:none;stroke:#FFFFFF;stroke-width:5;stroke-miterlimit:10;}
	.st3{fill:#FFFFFF;stroke:#FFFFFF;stroke-miterlimit:10;}
	.st4{fill:none;stroke:#FFFFFF;stroke-miterlimit:10;}
	.st5{fill:none;stroke:#FFFFFF;stroke-width:15;stroke-miterlimit:10;}
	.st6{fill:none;stroke:#FFFFFF;stroke-width:6;stroke-miterlimit:10;}
	.st7{fill:#FFFFFF;stroke:#FFFFFF;stroke-width:2.5;stroke-miterlimit:10;}
	.st8{fill:url(#SVGID_1_);}
	.st9{fill:none;stroke:#FFFFFF;stroke-width:7;stroke-miterlimit:10;}
	.st10{fill:#110007;stroke:#110007;stroke-width:2;stroke-miterlimit:10;}
	.st11{fill:url(#SVGID_2_);}
</style>
<g id="shugaring">
</g>
<g id="eyebrow_1_">
</g>
<g id="photo">
	<circle id="background_5_" class="st0" cx="300" cy="300" r="275"/>
	<g>
		<g>
			<path class="st1" d="M218.3,141.7c-7.9,8.3-13.6,17.4-17.5,28.2c-3.4,9.5-6,20.2-10.9,28.8c-0.2,0.4-1.8,2.8-1.8,2.8
				c-0.2-0.2,0.6-0.8,0.6-0.8c1.5-0.6,0.6-0.3-0.7-0.2c-4.4,0.4-8.7,1.2-13,2.1c-4.3,0.9-8.7,1.5-13,2.1
				c-12.3,1.9-24.8,3.1-36.2,8.7c-11.2,5.5-17.9,17.4-19.6,29.5c-0.9,6.3-1.2,12.6-0.4,18.9c0.2,1.4,0.4,2.9,0.6,4.3
				c0.2,1.2-0.1-3.8-0.3-2.5c-0.1,0.6,0,1.2,0,1.8c0.2,17.2-0.1,34.3-0.2,51.5c-0.1,15.5-0.2,31.1-0.3,46.6
				c-0.1,12.7,0.4,25.3,0.1,38c-0.2,11.2,0.5,22.7,2.2,33.7c2.3,14.9,14.3,26.8,29.7,27.5c6.6,0.3,13.3-1.3,20-1.1
				c8.2,0.2,16.3,1.2,24.5,1.4c7.4,0.2,14.8-0.5,22.2-0.4c36.6,0.7,73.2,0.8,109.9,0.5c14.9-0.2,29.9-0.2,44.8-0.1
				c16.7,0.1,33.4-0.2,50.1,0.2c13.9,0.4,27.8,0.2,41.6,0.7c13.8,0.5,26.1-2.7,35-13.7c8.6-10.7,9.4-24.3,8.3-37.6
				c-1.7-20.9,0.5-42,0.4-62.9c-0.1-10.4-0.3-20.8,0.2-31.2c0.5-10.2-0.6-20.2-1-30.4c-0.4-10.7,0.6-21.4,0.5-32.1
				c-0.1-16-1.7-33-17.3-41.3c-11.2-6-24.4-6.5-36.7-8.5c-7-1.2-15.1-2.3-21.4-3.2c-2.7-0.4-5.1-1.2-7.5-2.3c-0.2-0.1-1.6-0.8-1.6-1
				c0-0.5,2.4,3.1,1,0.7c-0.6-1.1-1.7-1.9-2.2-3.2c-0.6-1.3-1.3-3.9-2-5.7c-4.3-11.6-8.9-23.1-14.4-34.3c-1.4-2.8-2.8-6.6-4.9-9.1
				c-0.1-0.1-1-1.7,0.2,0.5c1.4,2.7-0.6-1.6-1.1-2.6c-0.9-1.7-1.9-3.2-3.2-4.6c-2.5-2.7-6.2-4.9-9.7-6.1c-1.9-0.6-4-0.9-5.9-1
				c-1,0-5.4,0.5-3.3,0.3c2.1-0.1-1.1,0-1.6,0.1c-1.5,0.1-2.9,0.1-4.4,0.1c-6.4,0.1-12.7,0-19.1,0.1c-15,0.2-29.9-0.4-44.8-0.4
				c-15.1,0-30.2,0.8-45.3,0C238.2,134.1,226.9,133.8,218.3,141.7c-4.8,4.4-4.4,12.5,0,17c4.8,4.8,12.2,4.4,17,0
				c0.1-0.1,0.1-0.1,0.2-0.2c-1.5,1.1-1.5,1.1-0.1,0.2c-1.4,0,1.8-0.3,1.8-0.3c3.2-0.7-2.2-0.2,0.8-0.1c0.9,0,1.9-0.1,2.9-0.1
				c5.4,0,10.8,0.5,16.2,0.6c15.3,0.1,30.5-0.6,45.8-0.2c13.6,0.4,27.2,0.4,40.8,0.3c5.7,0,11.4,0.1,17.2-0.1c0.9,0,8.1-0.3,8.2-0.8
				c-0.1,1-3.1-0.1-3.4-0.1c3.8,0.7-2.3-1.1-0.6-1.4c-0.4,0.1,3.8,7.5,4.1,8.1c2.7,4.9,5,10,7.3,15.1c3,6.9,5.7,14,8.2,21.2
				c2.3,6.5,4.8,12.7,10.2,17.2c5.5,4.6,12.3,7.1,19.3,8.1c3.3,0.5,6.7,0.8,10,1.1c3.4,0.3-2.9-0.7,0.3,0.1c3.2,0.7,6.4,1.3,9.6,1.8
				c6,1,12.1,1.8,18.1,2.8c3,0.5,6.1,1,9.1,1.8c1,0.3,2,0.6,3,1c-2.8-1,1.3,0.7,1.8,1c1.2,0.7,1.8,0.7,2.7,2.6
				c1.2,2.5,1.1,6.2,1.3,8.8c0.5,6,0.3,12,0.1,18.1c-0.3,9.6-0.7,19.1,0,28.7c0.7,9.3,0.8,18.5,0.4,27.9c-0.5,11.1,0.1,22.2,0,33.3
				c-0.1,13.2-0.7,26.4-0.9,39.6c-0.1,6.2,0,12.3,0.5,18.4c0.4,5.2,0.1,10.3-0.2,15.5c-0.1,0.6-0.1,1.2-0.2,1.8
				c0.3-1.7,0.2-1.7-0.1-0.1c-1.7,3.9,1.4-1.6-1.1,2.8c-0.8,1.3-0.8,1.1-1.7,2.2c-0.5,0.6-4.3,3.7-2,2.2c-3.4,2.2-7.7,2.5-12.7,2.4
				c-5.7-0.2-11.3-0.1-17-0.1c-15.1,0-30.1-0.9-45.2-0.9c-21.8,0.1-43.5-0.4-65.3-0.2c-36.7,0.5-73.4,0.6-110.1-0.1
				c-6-0.1-12-0.4-17.9-0.2c-4.3,0.1-8.5,0.5-12.8,0.4c-7.6,0-15.1-0.9-22.6-1.3c-3.8-0.2-7.5-0.3-11.3-0.1
				c-1.9,0.1-3.7,0.2-5.6,0.5c-1.7,0.2-3.4,0.4-5,0.7c2.1-0.3,2.4-0.3,0.7-0.1c-2.3-0.1-3.6,0.2-5.7-1.4c1,0.8-1.4-1.7-1.3-1.5
				c2.7,2.8-0.4-0.7-0.8-1.5c-0.2-0.4-1.4-6.9-0.9-3c-0.5-4.1-0.8-8.2-1.1-12.3c-0.5-7-0.7-14.1-0.4-21.1c0.6-15-0.3-30-0.2-45
				c0.1-9.1,0.1-18.2,0.2-27.2c0.1-13.4,0.2-26.9,0.2-40.3c0-6.8,0.2-13.7,0-20.5c-0.1-1.8-0.3-8-0.3-3.4c0.1-5.8-1-11.4,0.5-17.2
				c0.7-2.7,1.1-4.3,3.2-6.8c0.2-0.3,5.3-3.7,1.3-1.4c3.6-2.1,5.9-3.1,10.4-4.2c9.9-2.5,20.2-3.5,30.3-5c5.2-0.8,10.2-1.9,15.4-2.5
				c9.5-1,16.1-6.6,20.4-14.9c5-9.5,8.2-20.3,11.7-30.4c0.8-2.3,1.6-4.6,2.7-6.9c0.9-1.9,2.4-3.7,3.1-5.6c0.6-1.7-2.1,2.5-0.1,0.1
				c0.9-1.1,1.8-2.2,2.7-3.4c1.2-1.5,2.5-3.1,3.8-4.5C246,147.5,229,130.5,218.3,141.7z"/>
		</g>
	</g>
	<g>
		<g>
			<path class="st1" d="M371.8,316.9c-0.1,8.2-0.9,14.1-3.6,22.3c-2.1,6.4-5.4,13-9.9,19.4c-2.9,4.2-9.9,11.3-13.8,14.3
				c-2.9,2.3-6.1,4.3-9.3,6.1c-3.7,2.1-6.8,3.5-9.7,4.5c-15,5.4-29.7,5.9-44.6,1.6c-14.1-4-26-12.1-35.8-23.8
				c-18.5-22.2-20.5-56.1-5.3-81.3c7.4-12.3,17.9-21.6,31.5-28c12.4-5.8,29.1-7.8,42.5-5c16.7,3.4,30.3,11.4,41.5,24.4
				C365.8,283.7,371.6,300.5,371.8,316.9c0.1,15.4,24.1,15.5,24,0c-0.3-40-25.3-75.3-62.6-89.4c-36.7-13.8-80.5-1.9-105.4,28.4
				c-25.4,30.9-29.5,75.4-8.6,109.9c20.9,34.6,61.7,52,101.2,44.1c43.7-8.8,75.1-48.9,75.5-93.1
				C395.9,301.5,371.9,301.5,371.8,316.9z"/>
		</g>
	</g>
	<g>
		<g>
			<path class="st1" d="M262.5,319.5c0.7-11,4.4-21.9,12.6-29.6c6.7-6.3,16.7-10.2,25.9-9.4c6.4,0.5,6.4-9.5,0-10
				c-11.8-0.9-24.5,4.3-33,12.4c-10.1,9.5-14.6,23.1-15.5,36.6C252.1,325.9,262.1,325.9,262.5,319.5L262.5,319.5z"/>
		</g>
	</g>
</g>
<g id="cash">
</g>
<g id="adress">
</g>
<g id="ear">
</g>
<g id="lips">
</g>
<g id="eye">
</g>
</svg>
