<?xml version="1.0" encoding="utf-8"?>
<!-- Generator: Adobe Illustrator 22.1.0, SVG Export Plug-In . SVG Version: 6.00 Build 0)  -->
<svg version="1.1" xmlns="http://www.w3.org/2000/svg" xmlns:xlink="http://www.w3.org/1999/xlink" x="0px" y="0px"
	 viewBox="0 0 600 600" style="enable-background:new 0 0 600 600;" xml:space="preserve">
<style type="text/css">
	.st0{fill:#FD5757;}
	.st1{fill:#FFFFFF;}
	.st2{fill:none;stroke:#FFFFFF;stroke-width:5;stroke-miterlimit:10;}
	.st3{fill:#FFFFFF;stroke:#FFFFFF;stroke-miterlimit:10;}
	.st4{fill:none;stroke:#FFFFFF;stroke-miterlimit:10;}
	.st5{fill:none;stroke:#FFFFFF;stroke-width:15;stroke-miterlimit:10;}
	.st6{fill:none;stroke:#FFFFFF;stroke-width:6;stroke-miterlimit:10;}
	.st7{fill:#FFFFFF;stroke:#FFFFFF;stroke-width:2.5;stroke-miterlimit:10;}
	.st8{fill:url(#SVGID_1_);}
	.st9{fill:none;stroke:#FFFFFF;stroke-width:7;stroke-miterlimit:10;}
	.st10{fill:#110007;stroke:#110007;stroke-width:2;stroke-miterlimit:10;}
	.st11{fill:url(#SVGID_2_);}
</style>
<g id="shugaring">
	<circle id="background_7_" class="st0" cx="300" cy="300" r="275"/>
	<g id="bank">
		<g id="XMLID_1_">
			<g>
				<path class="st1" d="M436.8,372.7V412c-1.2,1.5-3,3.6-5.6,5.6c-4.2,3.3-8.3,4.8-10.8,5.6c-10.5,3.5-21,4.9-23.1,5.2
					c-20.5,2.9-16,2.9-29,4.5c-5.3,0.6-16.8,1.9-32,2.6c-10,0.5-22.9,0.3-48.4,0c-31.9-0.4-23.5-0.6-43.6-0.7
					c-9.7-0.1-16.8-0.1-27.5-0.7c-2.2-0.1-3.3-0.2-22-1.9c-22.1-1.9-23.8-2.1-27.6-3c-10-2.3-17.6-5.7-21.6-7.4
					c-6.1-2.7-11.1-5.5-14.9-7.8V412v-37.5c3.8,2.3,8.8,5.1,14.9,7.8c1.3,0.6,3,1.4,5.1,2.2c4.2,1.7,9.8,3.7,16.5,5.2
					c3.8,0.9,5.5,1,27.6,3c18.7,1.6,19.8,1.7,22,1.9c10.7,0.7,17.9,0.7,27.5,0.7c20,0.2,11.6,0.3,43.6,0.7c25.5,0.3,38.5,0.5,48.4,0
					c15.2-0.7,26.7-2,32-2.6c13-1.5,8.5-1.6,29-4.5c1.8-0.2,9.5-1.3,18.3-3.8c1.6-0.4,3.2-0.9,4.8-1.5c2.5-0.8,6.6-2.3,10.8-5.6
					C433.8,376.3,435.6,374.2,436.8,372.7z"/>
				<path class="st1" d="M436.8,241.1v37.2c-1.2,1.5-3,3.6-5.6,5.6c-4.2,3.3-8.3,4.8-10.8,5.6c-1.6,0.5-3.2,1-4.8,1.5
					c-8.7,2.4-16.5,3.5-18.3,3.8c-20.5,2.8-16,2.9-29,4.5c-5.3,0.6-16.8,1.9-32,2.6c-10,0.5-22.9,0.3-48.4,0
					c-31.9-0.4-23.5-0.6-43.6-0.7c-9.7-0.1-16.8-0.1-27.5-0.7c-2.2-0.1-3.3-0.2-22-1.9c-22.1-1.9-23.8-2.1-27.6-3
					c-6.7-1.5-12.3-3.6-16.5-5.2c-2.1-0.8-3.8-1.6-5.1-2.2c-6.1-2.7-11.1-5.5-14.9-7.8V243c3.8,2.3,8.8,5.1,14.9,7.8
					c4,1.8,11.6,5.1,21.6,7.4c3.8,0.9,5.5,1,27.6,3c18.7,1.6,19.8,1.7,22,1.9c10.7,0.7,17.9,0.7,27.5,0.7c20,0.2,11.6,0.3,43.6,0.7
					c25.5,0.3,38.5,0.5,48.4,0c15.2-0.7,26.7-2,32-2.6c13-1.5,8.5-1.6,29-4.5c2.1-0.3,12.5-1.7,23.1-5.2c2.5-0.8,6.6-2.3,10.8-5.6
					C433.8,244.7,435.6,242.6,436.8,241.1z"/>
				<path class="st1" d="M150.8,290.2v94.4c-2.1-0.8-3.8-1.6-5.1-2.2c-6.1-2.7-11.1-5.5-14.9-7.8v-94.4c3.8,2.3,8.8,5.1,14.9,7.8
					C147,288.6,148.7,289.3,150.8,290.2z"/>
			</g>
			<g>
				<path class="st2" d="M130.8,179.9c3.8,2.3,8.8,5.1,14.9,7.8c4,1.8,11.6,5.1,21.6,7.4c3.8,0.9,5.5,1,27.6,3
					c18.7,1.6,19.8,1.7,22,1.9c10.7,0.6,17.9,0.7,27.5,0.7c20,0.2,11.6,0.3,43.6,0.7c25.5,0.3,38.5,0.5,48.4,0
					c15.2-0.7,26.7-2,32-2.6c13-1.6,8.5-1.6,29-4.5c2.1-0.3,12.5-1.7,23.1-5.2c2.5-0.8,6.6-2.3,10.8-5.6c3.6-2.8,5.7-4,5.6-5.6
					c-0.2-2.9-7.1-4.7-20.1-7.8c-17-4.1-25.6-6.2-26.4-6.3c-12.7-2.3-22-3.2-36.1-4.5c-9.4-0.8-22.8-2.1-40.6-2.6
					c-14-0.4-24-0.3-38.7,0c-19.1,0.3-34,1-42.1,1.5c-15.3,0.8-27.1,1.5-43.2,3.4c-21.1,2.5-13.7,2.8-34.2,6
					c-5.9,0.9-11.3,3.8-17.1,5.2c0,0-4.5,1.1-6.4,3.8c-0.6,0.8-0.8,1.7-0.8,1.7c-0.1,0.4-0.2,0.7-0.2,0.9"/>
				<path class="st2" d="M130.8,227.9c3.8,2.3,8.8,5.1,14.9,7.8c4,1.8,11.6,5.1,21.6,7.4c3.8,0.9,5.5,1,27.6,3
					c18.7,1.6,19.8,1.7,22,1.9c10.7,0.6,17.9,0.7,27.5,0.7c20,0.2,11.6,0.3,43.6,0.7c25.5,0.3,38.5,0.5,48.4,0
					c15.2-0.7,26.7-2,32-2.6c13-1.6,8.5-1.6,29-4.5c2.1-0.3,12.5-1.7,23.1-5.2c2.5-0.8,6.6-2.3,10.8-5.6c2.6-2,4.4-4.1,5.6-5.6"/>
				<path class="st2" d="M130.8,243c3.8,2.3,8.8,5.1,14.9,7.8c4,1.8,11.6,5.1,21.6,7.4c3.8,0.9,5.5,1,27.6,3
					c18.7,1.6,19.8,1.7,22,1.9c10.7,0.7,17.9,0.7,27.5,0.7c20,0.2,11.6,0.3,43.6,0.7c25.5,0.3,38.5,0.5,48.4,0
					c15.2-0.7,26.7-2,32-2.6c13-1.5,8.5-1.6,29-4.5c2.1-0.3,12.5-1.7,23.1-5.2c2.5-0.8,6.6-2.3,10.8-5.6c2.6-2,4.4-4.1,5.6-5.6"/>
				<path class="st2" d="M130.8,280.2c3.8,2.3,8.8,5.1,14.9,7.8c1.3,0.6,3,1.4,5.1,2.2c4.2,1.7,9.8,3.7,16.5,5.2
					c3.8,0.9,5.5,1,27.6,3c18.7,1.6,19.8,1.7,22,1.9c10.7,0.6,17.9,0.7,27.5,0.7c20,0.2,11.6,0.3,43.6,0.7c25.5,0.3,38.5,0.5,48.4,0
					c15.2-0.7,26.7-2,32-2.6c13-1.6,8.5-1.6,29-4.5c1.8-0.2,9.5-1.3,18.3-3.8c1.6-0.4,3.2-0.9,4.8-1.5c2.5-0.8,6.6-2.3,10.8-5.6
					c2.6-2,4.4-4.1,5.6-5.6"/>
				<path class="st2" d="M130.8,374.6c3.8,2.3,8.8,5.1,14.9,7.8c1.3,0.6,3,1.4,5.1,2.2c4.2,1.7,9.8,3.7,16.5,5.2
					c3.8,0.9,5.5,1,27.6,3c18.7,1.6,19.8,1.7,22,1.9c10.7,0.7,17.9,0.7,27.5,0.7c20,0.2,11.6,0.3,43.6,0.7c25.5,0.3,38.5,0.5,48.4,0
					c15.2-0.7,26.7-2,32-2.6c13-1.5,8.5-1.6,29-4.5c1.8-0.2,9.5-1.3,18.3-3.8c1.6-0.4,3.2-0.9,4.8-1.5c2.5-0.8,6.6-2.3,10.8-5.6
					c2.6-2,4.4-4.1,5.6-5.6"/>
				<path class="st2" d="M130.8,413.9c3.8,2.3,8.8,5.1,14.9,7.8c4,1.8,11.6,5.1,21.6,7.4c3.8,0.9,5.5,1,27.6,3
					c18.7,1.6,19.8,1.7,22,1.9c10.7,0.7,17.9,0.7,27.5,0.7c20,0.2,11.6,0.3,43.6,0.7c25.5,0.3,38.5,0.5,48.4,0
					c15.2-0.7,26.7-2,32-2.6c13-1.5,8.5-1.6,29-4.5c2.1-0.3,12.5-1.7,23.1-5.2c2.5-0.8,6.6-2.3,10.8-5.6c2.6-2,4.4-4.1,5.6-5.6"/>
				<polyline class="st2" points="130.8,243 130.8,280.2 130.8,374.6 130.8,412 				"/>
				<polyline class="st2" points="436.8,241.1 436.8,278.3 436.8,372.7 436.8,412 				"/>
				<line class="st2" x1="130.8" y1="412" x2="130.8" y2="413.9"/>
				<line class="st2" x1="150.8" y1="290.2" x2="150.8" y2="384.6"/>
			</g>
		</g>
		<line class="st3" x1="415.6" y1="291.2" x2="415.6" y2="385.1"/>
		<line class="st3" x1="415.6" y1="275.6" x2="415.6" y2="291.2"/>
		<line class="st3" x1="415.6" y1="385.3" x2="415.6" y2="385.1"/>
		<line class="st3" x1="436.8" y1="275.6" x2="415.6" y2="275.6"/>
		<line class="st3" x1="436.8" y1="385.3" x2="415.6" y2="385.3"/>
		<rect x="415.6" y="273" class="st3" width="21.2" height="118.7"/>
		<line class="st3" x1="130.8" y1="179.2" x2="130.8" y2="179.9"/>
		<path class="st3" d="M130.8,227.9c0-0.1,0-5.1,0-5.1c0,0,0-3.9,0-3.9c0,0,0-7.5,0-7.6c0,0,0-9.3,0-9.3c0-7.3,0-14.6,0-22
			C130.8,195.9,130.8,211.9,130.8,227.9z"/>
		<g id="XMLID_2_">
			<g>
				<line class="st4" x1="436.8" y1="226" x2="436.8" y2="178"/>
			</g>
		</g>
		<rect x="130.8" y="201.9" class="st3" width="306" height="24.1"/>
		<rect x="233.9" y="222" class="st3" width="107.2" height="26.6"/>
		<rect x="334.4" y="211" class="st3" width="71.3" height="30"/>
		<rect x="404.5" y="222.7" class="st3" width="17.7" height="13.7"/>
		<rect x="403.9" y="193.3" class="st3" width="32.9" height="11.9"/>
		<rect x="421.5" y="188.8" class="st3" width="15.3" height="4.5"/>
		<rect x="430" y="184.5" class="st3" width="6.8" height="4.3"/>
		<rect x="433.4" y="182" class="st3" width="3.4" height="2.6"/>
		<rect x="385.1" y="196.2" class="st3" width="20.7" height="5.5"/>
		<rect x="369" y="199" class="st3" width="16" height="4.1"/>
		<rect x="415.4" y="218.5" class="st3" width="15.8" height="13.1"/>
		<rect x="335.4" y="235.3" class="st3" width="40.1" height="10.6"/>
		<rect x="373.4" y="237.9" class="st3" width="19.8" height="4.8"/>
		<rect x="402.8" y="231.6" class="st3" width="9.2" height="8"/>
		<rect x="371.1" y="237.2" class="st3" width="11.2" height="7.4"/>
		<rect x="335.4" y="239.6" class="st3" width="16.4" height="8.9"/>
		<rect x="326.6" y="224.1" class="st3" width="34.1" height="23.6"/>
		<rect x="349.2" y="230.9" class="st3" width="15.8" height="15.8"/>
		<rect x="357.6" y="242.1" class="st3" width="6.6" height="5.1"/>
		<rect x="363.6" y="244" class="st3" width="8.1" height="2.6"/>
		<rect x="350.3" y="247.1" class="st3" width="4.9" height="1.3"/>
		<rect x="362.9" y="245.7" class="st3" width="3.7" height="1.3"/>
		<rect x="374.1" y="243.1" class="st3" width="5.3" height="2.2"/>
		<rect x="380.2" y="241.3" class="st3" width="5.6" height="2.9"/>
		<rect x="384.6" y="240.3" class="st3" width="3.6" height="3.6"/>
		<rect x="386.6" y="239.2" class="st3" width="5.1" height="4.2"/>
		<rect x="392.2" y="240.6" class="st3" width="7.3" height="1.5"/>
		<rect x="390.8" y="241" class="st3" width="4.8" height="1.6"/>
		<rect x="404.5" y="238.2" class="st3" width="5.3" height="2.1"/>
		<rect x="410.3" y="235.2" class="st3" width="5.3" height="3.8"/>
		<rect x="414.2" y="234.2" class="st3" width="4" height="4"/>
		<rect x="417" y="233.3" class="st3" width="4" height="4"/>
		<rect x="420.8" y="230.9" class="st3" width="6.2" height="3.5"/>
		<rect x="425.2" y="229.5" class="st3" width="3.7" height="3.7"/>
		<rect x="420.5" y="233.6" class="st3" width="4.3" height="2"/>
		<rect x="423.3" y="232.3" class="st3" width="2.8" height="2.8"/>
		<rect x="419.8" y="234.3" class="st3" width="3.5" height="1.8"/>
		<rect x="427" y="230.7" class="st3" width="3.6" height="1.9"/>
		<rect x="425.5" y="232.1" class="st3" width="2.6" height="1.6"/>
		<rect x="428.9" y="225.5" class="st3" width="5.7" height="3.5"/>
		<rect x="428.1" y="228" class="st3" width="5.6" height="1.8"/>
		<rect x="429.8" y="229.3" class="st3" width="2.6" height="1.8"/>
		<rect x="433.4" y="225.8" class="st3" width="2.4" height="1.8"/>
		<rect x="426.3" y="186.7" class="st3" width="4.2" height="2.9"/>
		<rect x="423.8" y="187.7" class="st3" width="2.9" height="1.5"/>
		<rect x="422.7" y="188.2" class="st3" width="1.9" height="1.4"/>
		<rect x="425.4" y="187.2" class="st3" width="1.9" height="1.3"/>
		<rect x="428.3" y="185.6" class="st3" width="3.1" height="1.6"/>
		<rect x="427.4" y="186.2" class="st3" width="1.3" height="1"/>
		<rect x="429.2" y="185" class="st3" width="1.6" height="1.1"/>
		<rect x="431.7" y="183" class="st3" width="2.8" height="1.9"/>
		<rect x="432.8" y="182.4" class="st3" width="0.8" height="0.8"/>
		<rect x="430.7" y="183.8" class="st3" width="1.9" height="1"/>
		<rect x="434.7" y="180.9" class="st3" width="1.7" height="1.3"/>
		<rect x="435.6" y="180" class="st3" width="1" height="1"/>
		<rect x="434.1" y="181.6" class="st3" width="1" height="1"/>
		<rect x="433.8" y="184" class="st3" width="3" height="1.1"/>
		<rect x="429" y="187.7" class="st3" width="7.5" height="2.2"/>
		<rect x="415.6" y="190.7" class="st3" width="9" height="3.5"/>
		<rect x="419.8" y="189.3" class="st3" width="2.8" height="2"/>
		<rect x="417.7" y="190" class="st3" width="2.4" height="1.5"/>
		<rect x="417" y="190.3" class="st3" width="1.5" height="0.8"/>
		<rect x="413.4" y="191.3" class="st3" width="4.1" height="2.9"/>
		<rect x="411.1" y="191.8" class="st3" width="3.7" height="2.3"/>
		<rect x="408.7" y="192.2" class="st3" width="3.6" height="2.3"/>
		<rect x="406.4" y="192.9" class="st3" width="4.1" height="1.7"/>
		<rect x="400.9" y="193.9" class="st3" width="4.4" height="2.8"/>
		<rect x="398.1" y="194.3" class="st3" width="5" height="2.8"/>
		<rect x="395.4" y="194.6" class="st3" width="3.7" height="2.5"/>
		<rect x="392.5" y="194.9" class="st3" width="5" height="2.6"/>
		<rect x="389.8" y="195.3" class="st3" width="4.2" height="2"/>
		<rect x="388.2" y="195.8" class="st3" width="3.3" height="1.3"/>
		<rect x="379.4" y="197.1" class="st3" width="6.5" height="2.8"/>
		<rect x="383.4" y="196.5" class="st3" width="2.5" height="1.5"/>
		<rect x="376.8" y="197.7" class="st3" width="5" height="2.6"/>
		<rect x="373.9" y="198.2" class="st3" width="5" height="2.4"/>
		<rect x="363.3" y="199" class="st3" width="6.8" height="3.1"/>
		<rect x="371.2" y="198.5" class="st3" width="4.3" height="1.3"/>
		<rect x="359.3" y="199.8" class="st3" width="4.1" height="2.2"/>
		<rect x="355.6" y="200.2" class="st3" width="6.7" height="3.3"/>
		<rect x="351.6" y="200.6" class="st3" width="5.7" height="2.6"/>
		<rect x="348.4" y="200.6" class="st3" width="5.9" height="2.1"/>
		<rect x="199" y="222" class="st3" width="38" height="21"/>
		<rect x="159.4" y="215.2" class="st3" width="40.8" height="25.9"/>
		<rect x="209.1" y="235.3" class="st3" width="24.8" height="10.9"/>
		<rect x="135.4" y="188.9" class="st3" width="14.2" height="16.8"/>
		<rect x="138.7" y="219.1" class="st3" width="22.1" height="13.4"/>
		<rect x="151" y="229.4" class="st3" width="10.1" height="8.5"/>
		<rect x="169.6" y="232.5" class="st3" width="14.2" height="11"/>
		<rect x="135.4" y="224.5" class="st3" width="5.4" height="6.2"/>
		<rect x="144.7" y="230" class="st3" width="8.7" height="5.2"/>
		<rect x="154.3" y="236.4" class="st3" width="6.5" height="2.6"/>
		<rect x="151.7" y="236.9" class="st3" width="4.3" height="1.5"/>
		<rect x="157.5" y="238" class="st3" width="2.5" height="2.5"/>
		<rect x="161.9" y="239" class="st3" width="2.8" height="2.8"/>
		<rect x="164.2" y="237.6" class="st3" width="4.8" height="4.8"/>
		<rect x="165.4" y="235.9" class="st3" width="7.2" height="7.2"/>
		<rect x="171.2" y="240.5" class="st3" width="5" height="3.5"/>
		<rect x="174.4" y="238.4" class="st3" width="5.3" height="6"/>
		<rect x="178.7" y="237.6" class="st3" width="6.5" height="7.6"/>
		<rect x="153.1" y="236.9" class="st3" width="1.5" height="2"/>
		<rect x="154.6" y="235.1" class="st3" width="3.7" height="4.9"/>
		<rect x="148.6" y="233" class="st3" width="3.1" height="3.8"/>
		<rect x="145.5" y="233.9" class="st3" width="4.2" height="2"/>
		<rect x="142.6" y="231.6" class="st3" width="3.4" height="2.7"/>
		<rect x="133.3" y="225.8" class="st3" width="4.2" height="3.2"/>
		<rect x="136.1" y="230" class="st3" width="5.7" height="1.7"/>
		<rect x="140.2" y="228.6" class="st3" width="5.8" height="5.1"/>
		<rect x="142.6" y="232.5" class="st3" width="4" height="2.4"/>
		<rect x="132.6" y="225.8" class="st3" width="4.9" height="3.2"/>
		<rect x="147.6" y="234.6" class="st3" width="1.7" height="1.7"/>
		<rect x="149.7" y="235.9" class="st3" width="2" height="1.7"/>
		<rect x="183.8" y="240" class="st3" width="5.9" height="5.2"/>
		<rect x="188.5" y="238.9" class="st3" width="21.8" height="7.3"/>
		<rect x="213.9" y="243.7" class="st3" width="23.1" height="4.3"/>
		<rect x="202.9" y="243.7" class="st3" width="8.3" height="3.4"/>
		<rect x="200.6" y="244.6" class="st3" width="3.5" height="1.8"/>
		<rect x="228.8" y="246.4" class="st3" width="5.1" height="2.2"/>
		<rect x="210" y="245.5" class="st3" width="4.3" height="2"/>
		<rect x="130.8" y="226" class="st3" width="2.7" height="2.7"/>
		<rect x="134.2" y="228.1" class="st3" width="2.3" height="2.3"/>
		<rect x="132.8" y="227.4" class="st3" width="2.5" height="1.9"/>
		<rect x="130.8" y="182.9" class="st3" width="5.7" height="19.8"/>
		<rect x="136.1" y="185.1" class="st3" width="4.3" height="4.3"/>
		<rect x="130.8" y="181.1" class="st3" width="2.8" height="2.4"/>
		<rect x="147.2" y="191.4" class="st3" width="6.9" height="12.4"/>
		<rect x="153.6" y="195" class="st3" width="14.2" height="12"/>
		<rect x="163.3" y="197.7" class="st3" width="26" height="6.9"/>
		<rect x="152.5" y="192.3" class="st3" width="5" height="3.9"/>
		<rect x="149.1" y="190.2" class="st3" width="3.4" height="1.9"/>
		<rect x="156.6" y="193.5" class="st3" width="4.7" height="2.7"/>
		<rect x="166.5" y="196.3" class="st3" width="8.2" height="3.9"/>
		<rect x="186.8" y="199.7" class="st3" width="28.6" height="7.3"/>
		<rect x="213.1" y="200.3" class="st3" width="27.1" height="6.1"/>
		<rect x="239.5" y="200.9" class="st3" width="11.7" height="5.2"/>
		<rect x="188.1" y="198.2" class="st3" width="10.9" height="4"/>
		<rect x="197.6" y="199" class="st3" width="10.3" height="3.6"/>
		<rect x="171.6" y="197.3" class="st3" width="12.1" height="3.8"/>
		<rect x="173.7" y="196.6" class="st3" width="6.6" height="2.4"/>
		<rect x="167.4" y="196.3" class="st3" width="2.3" height="0.3"/>
		<rect x="165.4" y="195.6" class="st3" width="4.3" height="3.4"/>
		<rect x="160.1" y="194.9" class="st3" width="7.3" height="5.7"/>
		<rect x="152.5" y="193.9" class="st3" width="11.2" height="2.7"/>
		<rect x="138.2" y="186.3" class="st3" width="5.3" height="5.3"/>
		<rect x="151.1" y="190.8" class="st3" width="2.7" height="1.8"/>
		<rect x="156.8" y="192.8" class="st3" width="2.8" height="1.5"/>
		<rect x="163" y="194.3" class="st3" width="1.3" height="1.3"/>
		<rect x="153.4" y="191.5" class="st3" width="2.4" height="2.1"/>
		<rect x="148.9" y="189.4" class="st3" width="1.3" height="1.7"/>
		<rect x="142.5" y="187" class="st3" width="2.1" height="2.3"/>
		<rect x="142.5" y="188.4" class="st3" width="5.3" height="1.3"/>
		<rect x="144" y="187.2" class="st3" width="1.9" height="1.9"/>
		<rect x="139.8" y="185.4" class="st3" width="1.8" height="1.8"/>
		<rect x="136.1" y="183.8" class="st3" width="2.9" height="2.1"/>
		<rect x="130.8" y="180.7" class="st3" width="0.8" height="0.8"/>
		<rect x="132.7" y="181.5" class="st3" width="1.6" height="2.3"/>
		<rect x="133.5" y="182.6" class="st3" width="1.9" height="1.1"/>
		<rect x="130.8" y="180.5" class="st3" width="1" height="1"/>
		<rect x="133.9" y="182.3" class="st3" width="0.7" height="1.2"/>
	</g>
	<g id="flower">
		<g>
			<path class="st0" d="M400.3,288c0.4,0-1.4-8.8,1.7-18.4c2.4-7.5,6.6-12.3,12.8-19.5c5.5-6.3,8.5-9.6,14-12.3
				c6.3-3,12.1-3.3,15.1-3.4c8.4-0.3,14.6,2.1,16.2,2.8c4.4,1.8,9.4,3.8,12.8,8.9c3.4,5.1,3.4,10.4,3.4,16.8
				c-0.1,8.9-2.6,15.5-3.9,19c-3,7.7-6.9,12.8-7.8,14c-3.2,4-6.8,7.1-7.4,7.7c0,0-0.7,0.6-1.5,1.3c-6.3,5.1-14.6,8.7-14.5,8.9
				c0.1,0.3,10.1-6.5,22.9-6.1c2.9,0.1,6.4,0.8,13.4,2.2c7.3,1.5,10.9,2.2,14.5,3.9c6.8,3.2,11,7.5,12.8,9.5c3.4,3.6,6.6,7,8.4,12.8
				c2.3,7.7,0.3,14.3-0.6,16.8c-2.4,6.8-6.9,10.7-9.5,12.8c-6,5.1-12.1,6.7-16.2,7.8c-3,0.8-7.9,1.1-17.9,1.7
				c-10.9,0.7-12.9,0.3-15.1-0.6c-1.7-0.7-4.5-2.5-10.1-6.1c-3.6-2.3-6.6-4.6-6.7-4.5c-0.1,0.2,11.7,5.5,18.4,16.9
				c4,6.9,5.1,14,6.3,22.7c1,6.5,1.4,9.8,0.7,14.3c-0.5,3.1-2,13.2-10.8,19.9c-1.1,0.9-6.1,4.5-13.6,5.4c-8.5,1-14.9-2.3-18.8-4.3
				c-5.4-2.8-8.8-6.1-15.4-12.7c-6.1-6-9.1-9-10.6-12.8c-1.6-4.1-1.7-8.4-2-16.9c-0.2-4.7-0.1-9.9-0.2-9.9c-0.1,0,1.9,11.1-2.6,22.3
				c-1.2,2.9-4.1,10.3-11.4,15.1c-3.4,2.3-4.3,1.6-11.7,5.4c-8,4.1-7.5,5.1-11.7,6.5c-8.2,2.7-15.7,0.6-17.7,0
				c-2.3-0.7-7.5-2.4-11.9-7.3c-5.2-5.7-6.1-12.2-6.9-17.3c-1.3-8.9,0.6-15.9,1.5-19.2c2-7.2,5.1-12.1,7.6-16
				c3.8-5.8,7.2-11.5,13.8-15.8c6.1-4,12.2-5.3,12.3-5.2c0.1,0.1-9,5.1-20.5,7.1c-4.6,0.8-13.3,2.2-23.8-0.7
				c-9.9-2.8-16.1-8.1-17.3-9.1c-2.8-2.4-7.5-6.6-10.4-14c-1-2.6-3.3-8.5-2-16.2c0.4-2.7,1.8-8.3,6.1-13.6c4.5-5.4,9.7-7.6,12.7-8.7
				c5.4-2.2,10.1-2.3,19.5-2.6c5-0.2,9.8-0.3,16,0.9c2.1,0.4,5.6,1.2,9.9,2.8c8.6,3.2,13.9,7.4,14.1,7.1c0.3-0.4-7.2-4.3-13.6-12.1
				c-7.3-8.9-9.4-18.3-10.2-22.1c-0.9-4.1-2.5-12.2-0.2-22c0.6-2.4,1.7-6.2,4.1-10.4c2.2-3.9,4.1-7.4,8.2-9.7
				c3.5-2,6.9-2.1,10.4-2.2c2.7-0.1,7.7-0.2,13,2.2c2.3,1.1,2.9,1.8,11.5,9.9c8.2,7.7,8.9,8.2,10.4,10.4c3,4.4,4.4,8.5,5.4,11.4
				c1.4,4.1,2,7.3,2.6,10.4C400,282.1,400,288,400.3,288z"/>
			<g>
				<path class="st1" d="M404.6,290.6c1.7-3.6,0.3-8.5,0.7-12.4c0.7-7,3.6-13.1,7.9-18.6c4-5.1,8.4-10.8,13.5-14.8
					c4.8-3.8,11-5.2,17.1-5.4c10.5-0.2,25.6,3.8,27.2,16c1.6,12.5-2.1,25.5-9.2,35.7c-2.3,3.4-6.2,7.4-10,10.3
					c-2.9,2.3-6.2,4.1-9.5,5.9c-1.5,0.8-3.6,1.5-4.8,2.9c-2.8,3.1-1,8.7,3.5,8.5c3.5-0.1,7.2-3.1,10.4-4.2
					c5.8-1.9,11.5-2.4,17.5-1.3c12.3,2.3,23.2,4.2,32.2,13.5c5.1,5.3,8.6,11.1,7.9,18.9c-0.6,5.9-3.5,11-7.9,15
					c-9.6,8.8-21.8,8.9-34,9.6c-3,0.2-6,0.4-9,0.2c-0.7-0.1-2.3-0.4-2.3-0.4c-5.9-2.4-10.5-7.7-16.2-10.4c-5.1-2.3-10,3.5-6.1,7.9
					c1.8,2,5,3.1,7.2,4.7c5,3.6,9.3,8.4,11.9,14c2.9,6.4,3.7,13.8,4.6,20.6c0.7,4.8,0.9,9.3-0.3,13.9c-2.7,10.7-11.8,18.3-23.1,17.6
					c-12.4-0.7-21.4-10.5-29.6-18.8c-3.9-3.9-6.8-7.3-7.5-12.9c-0.8-6.6-0.2-13.4-0.7-20c-0.5-6.3-10.2-6.5-10,0
					c0.3,9.8,0,19.4-6,27.7c-2.9,4-6.3,6.1-10.7,7.8c-5.1,2.1-9.7,4.7-14.4,7.6c-8.2,5.1-21,2.4-27.4-4.6c-8.6-9.5-6.9-26.6-2-37.5
					c2.7-6.1,6.7-12.5,11.1-17.6c2.6-3,5.5-5.4,9-7.2c1.7-0.9,3.5-1.7,5.3-2.2c0.6-0.2,3.3-0.6,1.5-0.5c-1.2-2.8-2.4-5.7-3.5-8.5
					c0.9-0.8,0.7-0.4-0.1-0.1c-0.9,0.3-1.8,0.9-2.7,1.3c-2.8,1.2-5.7,2.2-8.6,3.1c-5.9,1.7-12.1,2.7-18.2,2.4
					c-10.8-0.4-21.5-5.2-28.8-13.2c-8.2-8.9-10.3-23.1-2.4-32.9c7.8-9.7,20.3-9.8,31.7-10c8.2-0.1,16.1,1.2,23.6,4.5
					c2.9,1.2,5.6,2.7,8.3,4.3c1.5,0.9,3.2,2.2,5.1,2.1c3.1-0.2,5.9-3,4.8-6.3c-1.1-3.4-5.5-5.3-8.1-7.5c-5.8-4.9-10.5-11-13.3-18.2
					c-3.9-10.2-5.2-22-1.3-32.4c2.4-6.4,6.1-13.1,13.5-14c4.9-0.6,10.8-0.4,15.1,2.3c2.3,1.5,6.8,6.2,9.6,8.9
					c2.1,1.9,4.2,3.9,6.2,5.8c0.5,0.5,2.6,2.7,2.2,2.2c4.3,5.4,6.3,12.7,7.6,19.3c0.8,3.8,1.3,7.6,1.6,11.4c0.2,1.9,0,4.3,1.1,5.9
					c3.5,5.4,12.2,0.4,8.6-5c1.5,2.2,0.3,2,0.4,1c0.1-0.5-0.1-1.5-0.2-1.8c-0.1-1.6-0.3-3.1-0.5-4.7c-0.5-4.1-1.2-8.2-2.1-12.2
					c-1.6-6.7-4.2-13.7-8.3-19.2c-3.1-4.2-7.4-7.5-11.1-11c-3.4-3.2-6.8-7.1-10.8-9.5c-11.9-6.9-29.6-4.4-37.3,7.2
					c-8.1,12.2-9.7,26.6-6.5,40.7c1.7,7.6,4.8,14.9,9.4,21.2c2.8,3.8,6.1,7.2,9.8,10.2c1.2,1,2.5,2,3.8,2.9c0.3,0.2,1.1,0.9,1.4,1
					c1.1,0.4,0.1,0.9-0.7-1.7c1.6-2.1,3.2-4.2,4.8-6.3c2.3-0.2,1.8,0.4-0.1-0.7c-1.3-0.8-2.7-1.6-4.1-2.3c-3.9-2-7.9-3.7-12.1-5
					c-7.8-2.4-15.7-3-23.8-2.7c-14.9,0.4-29.1,2.8-38.1,16c-8.2,12-6.8,28.4,1.6,39.9c7.7,10.6,20,17.5,32.9,19.4
					c8.2,1.2,16.6,0.5,24.6-1.5c5.7-1.4,13.8-3.3,18.3-7.4c3.2-2.9,0.7-8.7-3.5-8.5c-6.5,0.2-13.7,4.7-18.5,8.6
					c-5.8,4.8-10,11.6-13.9,18c-7.9,13.2-10.9,30.2-5.6,45c5.1,14.3,20.1,22,34.8,20.2c6.4-0.8,10.4-3.7,15.8-6.7
					c5.4-3,11.6-4.6,16.5-8.3c12.7-9.7,15.1-25.5,14.6-40.4c-3.3,0-6.7,0-10,0c1,12.9-1.5,25.9,7.7,36.4
					c9.1,10.3,20.2,21.4,34.1,24.5c13.9,3.1,28.7-3.2,35.4-15.8c6.6-12.3,4.5-26.2,1.7-39.3c-1.9-8.9-5.9-16.9-12.5-23.3
					c-2.5-2.4-5.2-4.6-8.1-6.5c-1-0.7-2.1-1.4-3.2-2c-0.8-0.4-2-1.7-0.7-0.2c-2,2.6-4,5.2-6.1,7.9c5.8,2.7,10.6,7.7,16.5,10.5
					c4.1,1.9,8.5,1.8,12.9,1.6c15.2-0.6,30.3-1,42.6-11.2c11.6-9.7,16.3-26.1,9.1-39.9c-6.3-12.2-19.1-20.4-32.2-23.3
					c-8-1.7-16.4-4.1-24.6-3.2c-4.3,0.4-8.5,1.4-12.5,3c-1.7,0.7-3.4,1.4-5,2.2c-1.8,0.9-3.4,0.8-0.4,0.7c1.2,2.8,2.4,5.7,3.5,8.5
					c-1.1,1.2,0.7-0.2,1.3-0.5c1.2-0.7,2.5-1.3,3.7-2c3.5-2,6.9-4.2,10-6.8c4.1-3.4,7.8-7.3,10.8-11.7c8.4-12,12.3-27.5,10.5-42.1
					c-1.8-14.4-15.1-22-28.4-24.1c-15.2-2.4-28.6,2.4-38.9,13.8c-5.9,6.6-12.1,13.3-15.5,21.6c-1.8,4.5-2.7,9.4-3,14.3
					c-0.1,1.7-0.1,3.4,0,5.1c0,0.5,0,1.3,0.1,1.8c0.3,1.3-0.8,2.2,0.7-1C393.3,291.3,401.9,296.4,404.6,290.6z"/>
			</g>
		</g>
		<circle class="st3" cx="396.1" cy="336.5" r="29"/>
	</g>
</g>
<g id="eyebrow_1_">
</g>
<g id="photo">
</g>
<g id="cash">
</g>
<g id="adress">
</g>
<g id="ear">
</g>
<g id="lips">
</g>
<g id="eye">
</g>
</svg>
