<?xml version="1.0" encoding="utf-8"?>
<!-- Generator: Adobe Illustrator 22.1.0, SVG Export Plug-In . SVG Version: 6.00 Build 0)  -->
<svg version="1.1" xmlns="http://www.w3.org/2000/svg" xmlns:xlink="http://www.w3.org/1999/xlink" x="0px" y="0px"
	 viewBox="0 0 600 600" style="enable-background:new 0 0 600 600;" xml:space="preserve">
<style type="text/css">
	.st0{fill:#FD5757;}
	.st1{fill:#FFFFFF;}
	.st2{fill:none;stroke:#FFFFFF;stroke-width:5;stroke-miterlimit:10;}
	.st3{fill:#FFFFFF;stroke:#FFFFFF;stroke-miterlimit:10;}
	.st4{fill:none;stroke:#FFFFFF;stroke-miterlimit:10;}
	.st5{fill:none;stroke:#FFFFFF;stroke-width:15;stroke-miterlimit:10;}
	.st6{fill:none;stroke:#FFFFFF;stroke-width:6;stroke-miterlimit:10;}
	.st7{fill:#FFFFFF;stroke:#FFFFFF;stroke-width:2.5;stroke-miterlimit:10;}
	.st8{fill:url(#SVGID_1_);}
	.st9{fill:none;stroke:#FFFFFF;stroke-width:7;stroke-miterlimit:10;}
	.st10{fill:#110007;stroke:#110007;stroke-width:2;stroke-miterlimit:10;}
	.st11{fill:url(#SVGID_2_);}
</style>
<g id="shugaring">
</g>
<g id="eyebrow_1_">
</g>
<g id="photo">
</g>
<g id="cash">
	<circle id="background_4_" class="st0" cx="300" cy="300" r="275"/>
	<g id="purse">
		<path class="st5" d="M338,368.4v-80.5h112.5v-53.5c0-19.1-15.7-34.8-34.8-34.8H156.3c-19.1,0-34.8,15.7-34.8,34.8v185.2
			c0,19.1,15.7,34.8,34.8,34.8h259.5c19.1,0,34.8-15.7,34.8-34.8v-51.2H338z"/>
		<g>
			<g>
				<path class="st1" d="M450.5,295.4c9.3,0,18.6,0,27.9,0c9.7,0,9.7-15,0-15c-9.3,0-18.6,0-27.9,0
					C440.9,280.4,440.9,295.4,450.5,295.4L450.5,295.4z"/>
			</g>
		</g>
		<g>
			<g>
				<path class="st1" d="M450.5,375.9c8.5,0,17.1,0,25.6,0c9.7,0,9.7-15,0-15c-8.5,0-17.1,0-25.6,0
					C440.9,360.9,440.9,375.9,450.5,375.9L450.5,375.9z"/>
			</g>
		</g>
		<g>
			<g>
				<path class="st1" d="M471,287.9c0,26.8,0,53.7,0,80.5c0,9.7,15,9.7,15,0c0-26.8,0-53.7,0-80.5C486,278.2,471,278.2,471,287.9
					L471,287.9z"/>
			</g>
		</g>
		<g>
			<g>
				<path class="st1" d="M476.1,375.9c0.8,0,1.6,0,2.3,0c1.9,0,3.9-0.8,5.3-2.2c0.7-0.7,1.2-1.5,1.6-2.4c0.5-0.9,0.7-1.9,0.6-2.9
					c-0.1-1.9-0.7-4-2.2-5.3c-1.5-1.3-3.3-2.2-5.3-2.2c-0.8,0-1.6,0-2.3,0c-1.9,0-3.9,0.8-5.3,2.2c-0.7,0.7-1.2,1.5-1.6,2.4
					c-0.5,0.9-0.7,1.9-0.6,2.9c0.1,1.9,0.7,4,2.2,5.3C472.3,375,474.1,375.9,476.1,375.9L476.1,375.9z"/>
			</g>
		</g>
		<circle class="st6" cx="378.2" cy="328.1" r="17"/>
		<g>
			<g>
				<path class="st1" d="M411.7,223.1c-11.3,0-22.7,0-34,0c-6.4,0-6.4,10,0,10c11.3,0,22.7,0,34,0
					C418.1,233.1,418.1,223.1,411.7,223.1L411.7,223.1z"/>
			</g>
		</g>
		<g>
			<g>
				<path class="st1" d="M349.7,223.1c-11.3,0-22.7,0-34,0c-6.4,0-6.4,10,0,10c11.3,0,22.7,0,34,0
					C356.2,233.1,356.2,223.1,349.7,223.1L349.7,223.1z"/>
			</g>
		</g>
		<g>
			<g>
				<path class="st1" d="M288.6,223.1c-11.3,0-22.7,0-34,0c-6.4,0-6.4,10,0,10c11.3,0,22.7,0,34,0C295,233.1,295,223.1,288.6,223.1
					L288.6,223.1z"/>
			</g>
		</g>
		<g>
			<g>
				<path class="st1" d="M227.8,223.1c-11.3,0-22.7,0-34,0c-6.4,0-6.4,10,0,10c11.3,0,22.7,0,34,0
					C234.2,233.1,234.2,223.1,227.8,223.1L227.8,223.1z"/>
			</g>
		</g>
		<g>
			<g>
				<path class="st1" d="M411.7,420.8c-11.3,0-22.7,0-34,0c-6.4,0-6.4,10,0,10c11.3,0,22.7,0,34,0
					C418.1,430.8,418.1,420.8,411.7,420.8L411.7,420.8z"/>
			</g>
		</g>
		<g>
			<g>
				<path class="st1" d="M349.7,420.8c-11.3,0-22.7,0-34,0c-6.4,0-6.4,10,0,10c11.3,0,22.7,0,34,0
					C356.2,430.8,356.2,420.8,349.7,420.8L349.7,420.8z"/>
			</g>
		</g>
		<g>
			<g>
				<path class="st1" d="M288.6,420.8c-11.3,0-22.7,0-34,0c-6.4,0-6.4,10,0,10c11.3,0,22.7,0,34,0C295,430.8,295,420.8,288.6,420.8
					L288.6,420.8z"/>
			</g>
		</g>
		<g>
			<g>
				<path class="st1" d="M227.8,420.8c-11.3,0-22.7,0-34,0c-6.4,0-6.4,10,0,10c11.3,0,22.7,0,34,0
					C234.2,430.8,234.2,420.8,227.8,420.8L227.8,420.8z"/>
			</g>
		</g>
		<g>
			<g>
				<path class="st1" d="M148.6,280c0,10.4,0,20.7,0,31.1c0,6.4,10,6.4,10,0c0-10.4,0-20.7,0-31.1
					C158.6,273.6,148.6,273.6,148.6,280L148.6,280z"/>
			</g>
		</g>
		<g>
			<g>
				<path class="st1" d="M148.6,340.6c0,10.4,0,20.7,0,31.1c0,6.4,10,6.4,10,0c0-10.4,0-20.7,0-31.1
					C158.6,334.2,148.6,334.2,148.6,340.6L148.6,340.6z"/>
			</g>
		</g>
		<g>
			<g>
				<path class="st1" d="M158.9,253.5c0-6.6-3.5-22.4,8.1-19.4c6.2,1.6,8.9-8,2.7-9.6c-6.6-1.7-14.8-0.1-18.4,6.1
					c-4.1,7-2.3,15.2-2.3,22.9C148.9,259.9,158.9,259.9,158.9,253.5L158.9,253.5z"/>
			</g>
		</g>
		<g>
			<g>
				<path class="st1" d="M148.9,399.3c-0.1,6.3-0.5,12.8,0,19.1c0.7,8.7,10.8,14.2,18.8,13.3c6.3-0.7,6.4-10.7,0-10
					c-2.8,0.3-7.4-0.5-8.8-3.5c-0.6-1.4,0-4.4,0-6c-0.1-4.3-0.1-8.6,0-12.9C159.1,392.9,149.1,392.9,148.9,399.3L148.9,399.3z"/>
			</g>
		</g>
	</g>
	<g id="bill">
		<g>
			<g>
				<path class="st1" d="M348.7,197.2c8.4-10.5,18.9-18.6,31.4-23.4c3.6-1.4,7.8-2.6,9.4-6.5c2.1-5.1-2.1-8.6-5.9-11.1
					c-4.3-3-8.3-5.9-11.7-9.8c-3.6-4.1-7-8.4-10.7-12.4c-4.6-4.9-9.7-9.3-14.6-14c-8-7.8-16.4-15.4-23.9-23.7
					c-5.8-6.4-10-16-20-15.7c-5.9,0.2-11.2,3.9-15.9,7.1c-5.9,4-11.6,8.1-16.6,13.2c-8.7,8.9-16.8,18.7-23.2,29.4
					c-5.6,9.5-10.6,19.3-16.3,28.8c-7.4,12.2-14.1,24.8-20,37.9c-2.6,5.8,6,10.9,8.6,5c9.3-20.6,21.8-39.2,32.3-59.1
					c10-18.9,23.8-35.5,41.6-47.5c2.8-1.9,7.6-6,11.4-4.6c3.2,1.2,5.7,6.2,7.8,8.7c4.9,6.1,10.8,11.5,16.4,17
					c7.2,7,14.4,14,21.7,20.9c5.3,5,9.8,10.8,14.6,16.3c3.6,4.1,7.8,7.2,12.2,10.3c0.3,0.2,2.6,2.1,2.9,2c-0.5-1.3-0.3-2.3,0.5-3.1
					c0.5-0.5,0.4-0.5-0.3,0c-1.9,0.1-4.7,1.9-6.5,2.6c-12.7,5.2-23.7,13.8-32.3,24.6C337.6,195.1,344.7,202.3,348.7,197.2
					L348.7,197.2z"/>
			</g>
		</g>
		<g>
			<g>
				<path class="st1" d="M247,196.6c-1.1-15.6,11-34.6,27.8-36c19.1-1.6,26.4,17.7,28.4,33.1c0.8,6.3,10.8,6.4,10,0
					c-1.4-10.3-3.5-21.2-10-29.6c-6.7-8.6-17.4-14.1-28.4-13.5c-22,1.4-39.3,24.9-37.8,46C237.4,203,247.4,203,247,196.6L247,196.6z
					"/>
			</g>
		</g>
		<g>
			<g>
				<path class="st1" d="M281.5,154.3c10.1-18.4,27.4-30.7,45.7-40.1c5.7-2.9,0.7-11.6-5-8.6c-19.8,10.2-38.3,23.9-49.3,43.7
					C269.7,154.9,278.3,159.9,281.5,154.3L281.5,154.3z"/>
			</g>
		</g>
		<g>
			<g>
				<path class="st1" d="M315.4,187.4c11.6-17.3,27.5-28.9,46.3-37.5c5.8-2.7,0.8-11.3-5-8.6c-20.4,9.3-37.3,22.3-49.9,41.1
					C303.2,187.7,311.9,192.7,315.4,187.4L315.4,187.4z"/>
			</g>
		</g>
	</g>
</g>
<g id="adress">
</g>
<g id="ear">
</g>
<g id="lips">
</g>
<g id="eye">
</g>
</svg>
