<?xml version="1.0" encoding="utf-8"?>
<!-- Generator: Adobe Illustrator 22.1.0, SVG Export Plug-In . SVG Version: 6.00 Build 0)  -->
<svg version="1.1" xmlns="http://www.w3.org/2000/svg" xmlns:xlink="http://www.w3.org/1999/xlink" x="0px" y="0px"
	 viewBox="0 0 600 600" style="enable-background:new 0 0 600 600;" xml:space="preserve">
<style type="text/css">
	.st0{fill:#FD5757;}
	.st1{fill:#FFFFFF;}
	.st2{fill:none;stroke:#FFFFFF;stroke-width:5;stroke-miterlimit:10;}
	.st3{fill:#FFFFFF;stroke:#FFFFFF;stroke-miterlimit:10;}
	.st4{fill:none;stroke:#FFFFFF;stroke-miterlimit:10;}
	.st5{fill:none;stroke:#FFFFFF;stroke-width:15;stroke-miterlimit:10;}
	.st6{fill:none;stroke:#FFFFFF;stroke-width:6;stroke-miterlimit:10;}
	.st7{fill:#FFFFFF;stroke:#FFFFFF;stroke-width:2.5;stroke-miterlimit:10;}
	.st8{fill:url(#SVGID_1_);}
	.st9{fill:none;stroke:#FFFFFF;stroke-width:7;stroke-miterlimit:10;}
	.st10{fill:#110007;stroke:#110007;stroke-width:2;stroke-miterlimit:10;}
	.st11{fill:url(#SVGID_2_);}
</style>
<g id="shugaring">
</g>
<g id="eyebrow_1_">
	<circle id="background_6_" class="st0" cx="300" cy="300" r="275"/>
	<path id="eyebrow" class="st3" d="M100.5,322.1c27-9.2,40.5-13.7,54.1-19c20.8-8,38.2-12.4,73-21.1c39.6-9.9,59.4-14.8,82.9-16.2
		c35.8-2,62.7,3.2,70.9,4.9c10.2,2.1,33,7.6,59.7,20.4c20.2,9.7,33.8,19.3,54.1,33.7c29.1,20.6,44.8,35.3,45.6,34.4
		c0.9-1-17.8-20.5-40.7-40c-17.6-14.9-35-29.8-61.8-44.2c-31.8-17.2-59.1-24.3-68.8-26.7c-31.3-7.6-56.1-7.7-71.6-7.7
		c-25,0-42.2,1.6-61.6,4.2c-8.9,1.5-18,2.5-26.9,3.5c-15,1.8-29.9,4.9-44.9,7.4c-32,5.3-48.1,7-48.1,7c-35.2,3.9-44.4,3.9-53,12.3
		c-7,6.8-3.1,17.5-2.8,28.1c0.3,10.6-3.1,21.2,3.5,25.3C69.9,332.1,76.7,330.2,100.5,322.1z"/>
</g>
<g id="photo">
</g>
<g id="cash">
</g>
<g id="adress">
</g>
<g id="ear">
</g>
<g id="lips">
</g>
<g id="eye">
</g>
</svg>
